<?xml version="1.0" encoding="UTF-8" standalone="no"?>
<!-- Created with Inkscape (http://www.inkscape.org/) -->

<svg
   xmlns:dc="http://purl.org/dc/elements/1.1/"
   xmlns:cc="http://creativecommons.org/ns#"
   xmlns:rdf="http://www.w3.org/1999/02/22-rdf-syntax-ns#"
   xmlns:svg="http://www.w3.org/2000/svg"
   xmlns="http://www.w3.org/2000/svg"
   xmlns:sodipodi="http://sodipodi.sourceforge.net/DTD/sodipodi-0.dtd"
   xmlns:inkscape="http://www.inkscape.org/namespaces/inkscape"
   width="256px"
   height="256px"
   viewBox="0 0 256 256"
   version="1.1"
   id="SVGRoot"
   inkscape:version="0.92.3 (2405546, 2018-03-11)"
   sodipodi:docname="icon_html.svg">
  <sodipodi:namedview
     id="base"
     pagecolor="#ffffff"
     bordercolor="#666666"
     borderopacity="1.0"
     inkscape:pageopacity="0.0"
     inkscape:pageshadow="2"
     inkscape:zoom="1"
     inkscape:cx="170.457"
     inkscape:cy="86.641702"
     inkscape:document-units="px"
     inkscape:current-layer="layer1"
     showgrid="false"
     inkscape:window-width="1024"
     inkscape:window-height="705"
     inkscape:window-x="-4"
     inkscape:window-y="-4"
     inkscape:window-maximized="1"
     inkscape:grid-bbox="true">
    <sodipodi:guide
       position="0,0"
       orientation="0,256"
       id="guide2135"
       inkscape:locked="false" />
    <sodipodi:guide
       position="256,0"
       orientation="-256,0"
       id="guide2137"
       inkscape:locked="false" />
    <sodipodi:guide
       position="256,256"
       orientation="0,-256"
       id="guide2139"
       inkscape:locked="false" />
    <sodipodi:guide
       position="0,256"
       orientation="256,0"
       id="guide2141"
       inkscape:locked="false" />
  </sodipodi:namedview>
  <defs
     id="defs881" />
  <metadata
     id="metadata884">
    <rdf:RDF>
      <cc:Work
         rdf:about="">
        <dc:format>image/svg+xml</dc:format>
        <dc:type
           rdf:resource="http://purl.org/dc/dcmitype/StillImage" />
        <dc:title></dc:title>
      </cc:Work>
    </rdf:RDF>
  </metadata>
  <g
     id="layer1"
     inkscape:groupmode="layer"
     inkscape:label="Camada 1">
    <rect
       style="fill:#ffffff;fill-opacity:1;stroke:none;stroke-width:2.66499996;stroke-linecap:butt;stroke-linejoin:miter;stroke-miterlimit:0;stroke-dasharray:none;stroke-opacity:1;paint-order:markers stroke fill"
       id="rect2143"
       width="256"
       height="256"
       x="0"
       y="0"
       ry="31" />
    <g
       id="g3670"
       transform="translate(0.541627,-2.22546)">
      <path
         style="fill:#f9d6cd;stroke-width:0.20124583"
         d="M 121.21352,244.34607 C 92.430117,242.37509 66.407811,230.6072 46.243455,210.44285 28.408311,192.6077 16.971597,169.85781 13.360411,145.03195 c -0.904454,-6.21785 -1.095806,-9.15221 -1.095806,-16.80402 0,-7.65182 0.191352,-10.58617 1.095806,-16.80403 3.61083,-24.823411 15.070431,-47.618322 32.881994,-65.407349 17.890584,-17.867947 40.577789,-29.274193 65.411945,-32.886586 6.21785,-0.904454 9.15221,-1.095806 16.80402,-1.095806 7.65182,0 10.58617,0.191352 16.80403,1.095806 24.82477,3.611028 47.57653,15.048683 65.41089,32.883044 17.83515,17.835145 29.27185,40.585035 32.88305,65.410891 0.90444,6.21786 1.0958,9.15221 1.0958,16.80403 0,7.65181 -0.19136,10.58617 -1.0958,16.80402 -3.6112,24.82586 -15.0479,47.57575 -32.88305,65.4109 -19.30579,19.30577 -43.79909,30.84241 -71.34764,33.60558 -3.67575,0.36868 -14.48147,0.54626 -18.11213,0.29764 z m 27.57068,-51.71694 c 10.9025,-3.02082 19.90216,-5.56372 19.99927,-5.6509 0.20108,-0.18053 9.22306,-100.781678 9.06159,-101.042941 -0.13753,-0.222524 -98.635776,-0.222638 -98.773301,-1.17e-4 -0.120619,0.195167 8.652798,99.386258 8.884396,100.445788 l 0.152427,0.69734 20.023958,5.58331 c 11.01318,3.07082 20.20508,5.55555 20.42646,5.52161 0.22137,-0.0339 9.32271,-2.53328 20.2252,-5.55409 z M 115.33459,173.7468 c -6.83068,-1.84683 -12.51188,-3.45149 -12.6249,-3.5659 -0.11301,-0.11442 -0.63449,-4.62474 -1.15884,-10.02293 -0.82905,-8.53519 -0.91476,-9.83931 -0.65732,-10.00211 0.36611,-0.23154 12.2688,-0.25191 12.63182,-0.0216 0.17619,0.11176 0.4214,1.69325 0.75434,4.86505 0.27131,2.58469 0.58767,4.75778 0.70303,4.82907 0.11535,0.0713 3.19626,0.97214 6.84646,2.00189 l 6.63673,1.87226 6.58703,-1.86936 c 3.62287,-1.02815 6.69206,-1.96884 6.82043,-2.09043 0.25542,-0.24193 1.57509,-14.89266 1.37118,-15.2226 -0.0745,-0.12058 -8.12609,-0.19252 -21.54611,-0.19252 -16.96024,0 -21.4456,-0.0524 -21.51579,-0.25155 -0.0488,-0.13836 -0.869728,-8.75351 -1.824348,-19.14477 -1.431912,-15.58675 -1.688241,-18.92327 -1.464663,-19.06496 0.360053,-0.22819 62.373961,-0.22369 62.734331,0.005 0.23527,0.149 0.19916,1.1595 -0.23321,6.52694 -0.28137,3.49286 -0.57045,6.44592 -0.64242,6.56236 -0.0904,0.14618 -7.47367,0.21171 -23.8541,0.21171 -13.04779,0 -23.76049,0.0679 -23.806,0.15094 -0.0455,0.083 0.19819,2.73191 0.54155,5.88644 l 0.62429,5.73551 22.36468,0.0512 c 17.55593,0.0402 22.4088,0.10508 22.56986,0.30187 0.29965,0.36613 -2.85759,38.56137 -3.21579,38.90354 -0.362,0.34579 -24.67734,6.93243 -25.53245,6.91633 -0.3797,-0.007 -6.27911,-1.52403 -13.10979,-3.37087 z M 93.846836,73.841239 c 0.0041,-3.942434 -0.322392,-3.592715 3.292305,-3.526909 l 3.044189,0.05542 0.10063,3.018687 0.10062,3.018688 h 2.81744 2.81744 V 67.351062 58.295 h -2.81744 -2.81744 l -0.10062,3.018687 -0.10063,3.018688 -2.916504,0.05613 c -2.566388,0.0494 -2.946894,0.01459 -3.169622,-0.290021 -0.174392,-0.238495 -0.253115,-1.210472 -0.253115,-3.125133 v -2.778977 h -2.817442 -2.817442 v 9.156685 9.156686 h 2.817442 2.817442 l 0.0027,-2.666508 z m 26.964194,-3.672736 0.10062,-6.238621 2.64453,-0.056 c 2.53997,-0.05379 2.64926,-0.07368 2.76438,-0.503114 0.1566,-0.584161 0.15505,-4.139468 -0.002,-4.72578 l -0.12192,-0.45499 -8.37797,0.0525 -8.37798,0.0525 v 2.716818 2.716819 l 2.71682,0.100623 2.71682,0.100623 0.0532,6.29444 0.0532,6.294441 2.86488,-0.05582 2.86488,-0.05582 z m 14.53616,1.864162 c 0.0459,-3.790868 0.10032,-4.483346 0.35603,-4.529144 0.19461,-0.03485 0.99606,1.018948 2.25555,2.965738 1.07453,1.66089 2.02541,3.017709 2.11308,3.015155 0.0877,-0.0026 0.92195,-1.202482 1.85394,-2.666507 1.92565,-3.024896 2.18551,-3.366223 2.56282,-3.366223 0.21872,0 0.27068,0.869177 0.27068,4.528031 v 4.528032 h 2.81744 2.81744 v -9.156686 -9.156685 h -3.02738 -3.02739 l -0.74597,1.214548 c -2.80051,4.559603 -3.18742,5.124696 -3.5088,5.124696 -0.22798,0 -0.98404,-1.051721 -2.24243,-3.119311 l -1.89849,-3.11931 h -3.08862 -3.08862 l -0.0525,8.854816 c -0.0289,4.87015 -0.009,8.968018 0.044,9.106374 0.0706,0.184074 0.82598,0.251558 2.81578,0.251558 h 2.71928 z m 33.5616,1.661564 v -2.813517 l -4.3771,-0.05424 -4.3771,-0.05424 -0.10062,-6.23862 -0.10062,-6.238621 -2.86776,-0.05584 -2.86775,-0.05584 v 9.16221 9.162212 h 7.34547 7.34548 z"
         id="path3684"
         inkscape:connector-curvature="0" />
      <path
         style="fill:#f6c4b8;stroke-width:0.20124583"
         d="m 121.61601,244.22055 c -18.59152,-1.30413 -34.91794,-6.1349 -50.412078,-14.91618 -22.888055,-12.9718 -40.819226,-33.50905 -50.648674,-58.00983 -4.147756,-10.33866 -6.575694,-20.53852 -7.856233,-33.00432 -0.346328,-3.37144 -0.346328,-16.75314 0,-20.12459 0.866276,-8.43302 1.994814,-14.55782 3.967668,-21.5333 7.637487,-27.004094 24.65339,-50.135244 48.298618,-65.656383 13.977544,-9.175102 29.918488,-15.241394 46.387169,-17.652536 6.44326,-0.943344 8.83123,-1.0964 17.10589,-1.0964 8.27467,0 10.66263,0.153056 17.1059,1.0964 30.19636,4.420983 57.65057,20.86707 76.08099,45.575325 11.43935,15.335891 18.96732,33.437972 21.71762,52.223294 0.94334,6.44327 1.09641,8.83123 1.09641,17.1059 0,8.27466 -0.15307,10.66262 -1.09641,17.10589 -4.42097,30.19637 -20.86706,57.65058 -45.57532,76.08099 -16.95451,12.64673 -36.26241,20.12134 -57.9588,22.43742 -2.87581,0.30698 -15.45934,0.56148 -18.21275,0.36832 z m 27.24242,-51.47817 c 10.94332,-3.03422 19.97064,-5.59203 20.06071,-5.68403 0.17432,-0.17806 9.23707,-100.886579 9.10178,-101.14236 -0.10438,-0.197366 -99.020853,-0.197366 -99.124637,0 -0.144734,0.275244 8.925371,100.96991 9.11168,101.15622 0.278203,0.27821 39.442617,11.14431 40.249167,11.16707 0.38739,0.0109 9.65798,-2.46267 20.6013,-5.4969 z m -33.27456,-19.06106 c -6.91494,-1.87147 -12.65884,-3.48888 -12.76421,-3.59425 -0.29918,-0.29918 -2.12451,-19.36997 -1.88285,-19.67179 0.15315,-0.19129 1.66329,-0.25156 6.30289,-0.25156 4.66019,0 6.13994,0.0594 6.26429,0.25156 0.0896,0.13836 0.38922,2.33445 0.66593,4.88021 l 0.50311,4.62866 6.84236,1.96952 6.84236,1.96952 6.88615,-1.95793 6.88614,-1.95792 0.10893,-0.81658 c 0.0599,-0.44912 0.33245,-3.5334 0.60564,-6.85396 0.27318,-3.32055 0.54718,-6.46753 0.60888,-6.99329 l 0.11218,-0.95592 -21.3893,-0.003 c -11.76411,-0.002 -21.51065,-0.08 -21.65897,-0.174 -0.20058,-0.12714 -0.711365,-4.96526 -1.993993,-18.88713 -0.948384,-10.29392 -1.667562,-18.86416 -1.598176,-19.04498 0.115978,-0.30223 2.644525,-0.32876 31.331899,-0.32876 28.89082,0 31.21524,0.0248 31.33394,0.3341 0.18169,0.47348 -0.75311,12.39211 -0.99581,12.69657 -0.1584,0.19868 -5.18613,0.25155 -23.92291,0.25155 h -23.72237 l 1e-5,0.45281 c 1e-5,0.24904 0.27169,2.92829 0.60374,5.95389 0.33205,3.0256 0.60373,5.53865 0.60373,5.58457 0,0.0459 10.10035,0.0835 22.44523,0.0835 18.30011,0 22.46387,0.0486 22.54622,0.26321 0.0556,0.14476 -0.58121,8.56263 -1.41503,18.70639 -0.83382,10.14376 -1.51604,18.65655 -1.51604,18.91731 0,0.26077 -0.1132,0.62881 -0.25156,0.81788 -0.17378,0.23748 -4.14034,1.40019 -12.82942,3.76068 -6.91783,1.87931 -12.66843,3.4068 -12.77911,3.39442 -0.11069,-0.0124 -5.85893,-1.55371 -12.77388,-3.42518 z M 94.000773,73.703998 c 0.03325,-1.722425 0.145645,-3.012316 0.276197,-3.169622 0.162044,-0.195251 0.92874,-0.26525 2.905236,-0.26525 2.448711,0 2.703438,0.03427 2.893424,0.389262 0.11528,0.215403 0.20833,1.65353 0.20833,3.219933 v 2.830672 h 2.91806 2.91806 V 67.351061 57.99313 h -2.91806 -2.91806 l -0.003,2.867753 c -0.002,1.577264 -0.0766,2.983536 -0.16636,3.125048 -0.123033,0.193876 -0.878733,0.243481 -3.065919,0.201246 l -2.902644,-0.05605 -0.100622,-3.018688 -0.100623,-3.018687 h -2.918065 -2.918065 l -0.05247,9.056062 c -0.02886,4.980835 -0.0081,9.171761 0.04612,9.313171 0.07506,0.195737 0.784126,0.243775 2.970538,0.201245 l 2.871939,-0.05586 z m 26.813337,-3.082692 c 0.002,-3.348228 0.0732,-6.19804 0.1589,-6.332915 0.10615,-0.167058 0.98724,-0.263283 2.76405,-0.301868 l 2.60823,-0.05664 v -2.918065 -2.918064 h -8.45232 -8.45233 v 2.918064 2.918065 l 2.60823,0.05664 c 1.77682,0.03859 2.6579,0.13481 2.76405,0.301868 0.0857,0.134875 0.15721,2.984687 0.1589,6.332915 l 0.003,6.087687 h 2.91807 2.91806 l 0.003,-6.087687 z m 14.64141,1.509344 c 0.0351,-2.899691 0.12713,-4.47772 0.26122,-4.47772 0.11388,0 1.08567,1.356906 2.15954,3.015349 1.07386,1.658441 2.06076,2.99421 2.1931,2.968376 0.13233,-0.02584 1.08322,-1.352964 2.11308,-2.949175 1.02985,-1.59621 1.98567,-2.939526 2.12402,-2.985146 0.19591,-0.0646 0.25224,0.866711 0.25464,4.2103 0.002,2.361284 0.0766,4.409103 0.16646,4.550706 0.12284,0.193568 0.85875,0.243511 2.9653,0.201246 l 2.80191,-0.05622 v -9.257309 -9.257308 l -3.04013,-0.0554 c -2.53975,-0.04628 -3.08251,-0.0043 -3.29754,0.254745 -0.14156,0.17058 -1.04396,1.599196 -2.00531,3.174705 -0.96135,1.57551 -1.87732,2.886353 -2.03548,2.912985 -0.17864,0.03008 -1.0158,-1.151518 -2.21002,-3.119308 l -1.92245,-3.16773 -3.15901,-0.05542 -3.159,-0.05542 v 9.368567 9.368567 l 2.86775,-0.05584 2.86775,-0.05584 z m 33.6102,1.788747 c 0.0379,-1.811037 -0.0194,-2.780195 -0.17558,-2.968376 -0.18428,-0.222048 -1.09437,-0.279403 -4.4334,-0.279403 -2.31084,0 -4.22088,-0.02264 -4.24453,-0.05031 -0.0237,-0.02767 -0.0916,-2.857691 -0.15093,-6.288932 l -0.10793,-6.238621 -2.86776,-0.05584 -2.86775,-0.05584 v 9.365935 9.365937 l 7.39578,-0.05279 7.39579,-0.05279 z"
         id="path3682"
         inkscape:connector-curvature="0" />
      <path
         style="fill:#f4b7a8;stroke-width:0.20124583"
         d="M 122.62224,244.22102 C 101.251,242.94975 81.796786,236.55379 64.56282,225.13287 57.429933,220.40593 52.773955,216.58171 46.439268,210.24704 40.11498,203.92274 35.980922,198.8823 31.39783,191.90779 22.047958,177.67923 16.007056,161.76977 13.560625,144.93133 c -0.872909,-6.00811 -1.102999,-9.49251 -1.102999,-16.7034 0,-7.2109 0.23009,-10.69529 1.102999,-16.70341 3.113211,-21.427791 11.890847,-40.978148 26.067276,-58.059421 2.794574,-3.367202 10.699466,-11.272204 14.067643,-14.067841 17.071,-14.169176 36.63989,-22.955068 58.059426,-26.067079 6.00811,-0.872909 9.4925,-1.102999 16.7034,-1.102999 10.71065,0 18.52276,0.943065 28.46012,3.43566 16.86723,4.230817 32.39317,12.189294 46.30271,23.734418 3.36817,2.795637 11.27307,10.700639 14.06765,14.067841 14.17642,17.081273 22.95406,36.63163 26.06727,58.059421 0.8729,6.00812 1.10301,9.49251 1.10301,16.70341 0,7.21089 -0.23011,10.69529 -1.10301,16.7034 -3.11321,21.42779 -11.89085,40.97815 -26.06727,58.05942 -2.79458,3.36721 -10.69948,11.27221 -14.06765,14.06785 -18.70332,15.52403 -39.93819,24.39965 -64.0968,26.79084 -2.97864,0.2948 -13.72479,0.53678 -16.50216,0.37158 z m 26.42048,-51.45847 c 10.934,-3.03404 19.9306,-5.56704 19.99244,-5.62889 0.15707,-0.15707 9.15177,-101.009125 9.03629,-101.318293 -0.13822,-0.370019 -99.087988,-0.370019 -99.22604,0 -0.122477,0.328266 8.872389,101.154513 9.039015,101.321133 0.288371,0.28838 40.308725,11.3098 40.775195,11.22931 0.27671,-0.0478 9.44911,-2.56921 20.3831,-5.60326 z m -33.5647,-19.18122 c -6.7518,-1.82397 -12.38986,-3.42816 -12.52902,-3.56487 -0.28482,-0.27981 -2.19484,-19.01324 -1.99235,-19.54092 0.10439,-0.27203 0.88435,-0.31142 6.11304,-0.30874 3.29636,0.002 6.11268,0.0787 6.25849,0.17119 0.18071,0.11459 0.42157,1.63518 0.7566,4.77651 0.34012,3.18918 0.57624,4.67165 0.76672,4.81377 0.15138,0.11295 3.26307,1.05546 6.91486,2.09448 l 6.63963,1.88911 6.68586,-1.88462 c 3.67723,-1.03654 6.80403,-1.97906 6.94844,-2.09448 0.28971,-0.23155 1.6497,-15.21877 1.41541,-15.59787 -0.0876,-0.14178 -6.98869,-0.20854 -21.55601,-0.20854 -16.95901,0 -21.44609,-0.0525 -21.5181,-0.25156 -0.17982,-0.49721 -3.531947,-37.59984 -3.414255,-37.79027 0.07683,-0.12432 11.413035,-0.19488 31.307985,-0.19488 26.06682,0 31.20474,0.0448 31.29228,0.27293 0.094,0.24486 -0.53386,9.11294 -0.83195,11.75151 l -0.11936,1.05654 H 134.9084 c -18.72605,0 -23.74969,0.0529 -23.90682,0.25156 -0.13352,0.16884 0.0176,2.17046 0.45959,6.08768 0.36218,3.20987 0.66701,5.85877 0.6774,5.88644 0.0104,0.0277 10.06003,0.0503 22.33254,0.0503 17.61045,0 22.35565,0.053 22.51295,0.25156 0.1339,0.16899 -0.31809,6.49381 -1.37702,19.26929 -0.86699,10.45975 -1.57951,19.07837 -1.58339,19.15249 -0.0111,0.21161 -1.18402,0.55074 -13.41979,3.88008 -6.32549,1.72117 -11.80441,3.12224 -12.17537,3.1135 -0.37096,-0.009 -6.19868,-1.50823 -12.95047,-3.3322 z M 94.045335,73.908011 c 0,-1.540541 0.05497,-2.944231 0.122154,-3.119311 0.103545,-0.269834 0.562613,-0.318328 3.013445,-0.318328 h 2.891296 l 0.0555,3.068999 0.0555,3.068999 h 3.01869 3.01869 v -9.257309 -9.257308 h -3.01869 -3.01869 l -0.10062,3.018687 -0.100623,3.018688 -2.801916,0.05622 c -2.106547,0.04227 -2.842461,-0.0077 -2.965293,-0.201246 -0.08986,-0.141603 -0.164768,-1.547951 -0.166462,-3.125215 l -0.0031,-2.867753 H 91.026528 88.00784 v 9.357931 9.357932 h 3.018688 3.018688 z m 26.966945,-3.538262 0.10062,-6.238621 2.60823,-0.05664 c 1.77682,-0.03859 2.6579,-0.13481 2.76405,-0.301869 0.18355,-0.288874 0.21789,-4.997141 0.0398,-5.46116 -0.10873,-0.283329 -1.05779,-0.318328 -8.63204,-0.318328 -7.57426,0 -8.52332,0.035 -8.63204,0.318328 -0.17806,0.464019 -0.14373,5.172286 0.0398,5.46116 0.10615,0.167059 0.98724,0.263284 2.76405,0.301869 l 2.60823,0.05664 0.0509,6.037375 c 0.028,3.320556 0.094,6.153007 0.14669,6.294336 0.0731,0.19607 0.80019,0.243759 3.0684,0.201246 l 2.97261,-0.05572 z m 14.4897,1.911835 c 0,-3.51595 0.0543,-4.427408 0.26363,-4.427408 0.145,0 1.10845,1.315548 2.141,2.92344 1.03254,1.607892 1.9561,2.972103 2.05234,3.031581 0.0962,0.05948 1.0572,-1.254049 2.13547,-2.91895 1.07828,-1.664901 2.07194,-3.029112 2.20814,-3.031581 0.18693,-0.0034 0.26093,1.068476 0.30187,4.372607 l 0.0542,4.377097 2.96838,0.05569 2.96837,0.05569 V 67.356441 57.99313 h -3.19822 -3.19823 l -1.95488,3.229591 c -1.07519,1.776274 -2.05448,3.196392 -2.1762,3.155816 -0.12173,-0.04057 -0.99889,-1.348699 -1.94923,-2.906941 -0.95036,-1.558243 -1.85027,-2.980594 -1.99981,-3.160781 -0.23377,-0.281672 -0.71233,-0.319863 -3.41276,-0.272338 l -3.14086,0.05528 -0.0525,9.056062 c -0.0289,4.980835 -0.009,9.169264 0.044,9.30762 0.0711,0.185279 0.86696,0.251558 3.02085,0.251558 h 2.92438 z m 33.50743,1.408721 V 70.77224 l -4.32679,-0.100622 -4.32678,-0.100623 -0.10063,-6.238621 -0.10062,-6.238621 h -3.01869 -3.01868 l -0.0525,9.056062 c -0.0289,4.980835 -0.009,9.170383 0.045,9.310106 0.0765,0.199525 1.68568,0.242712 7.49857,0.201246 l 7.40115,-0.0528 z"
         id="path3680"
         inkscape:connector-curvature="0" />
      <path
         style="fill:#f3a895;stroke-width:0.20124583"
         d="M 124.53408,244.22546 C 88.712787,242.75655 56.704548,225.99392 35.420867,197.55712 22.290928,180.0144 14.561455,159.38446 12.725075,136.98212 c -0.318443,-3.88474 -0.318443,-13.62364 0,-17.50839 1.51554,-18.48836 7.018733,-35.718907 16.334862,-51.1446 18.216129,-30.16236 49.148697,-50.473369 83.902503,-55.092248 5.7496,-0.764138 9.26599,-0.9891 15.49593,-0.991357 6.2052,-0.0022 9.70393,0.221584 15.49593,0.991357 41.52206,5.518399 77.03824,33.323045 92.44656,72.373872 4.22299,10.702735 6.81628,21.974616 7.79081,33.862976 0.31843,3.88475 0.31843,13.62365 0,17.50839 -1.6713,20.38852 -8.17277,39.18794 -19.2879,55.77217 -19.65532,29.32656 -51.43632,48.09201 -86.50774,51.07947 -3.48664,0.29702 -10.99643,0.50921 -13.86195,0.3917 z m 24.34949,-51.36458 c 18.99949,-5.27568 20.13167,-5.61527 20.27256,-6.08064 0.22644,-0.74795 9.06491,-100.581731 8.93472,-100.921002 -0.0992,-0.258633 -6.28095,-0.295429 -49.63248,-0.295429 -43.198094,0 -49.533478,0.03746 -49.631704,0.293427 -0.14336,0.373593 8.751764,100.728904 8.964187,101.134474 0.103725,0.19804 7.038425,2.21853 20.161257,5.87419 11.00173,3.06477 20.18427,5.57466 20.40564,5.57752 0.22137,0.003 9.45799,-2.50928 20.52582,-5.58254 z m -33.39202,-19.33174 c -7.67523,-2.07409 -12.52663,-3.47895 -12.62749,-3.65664 -0.12566,-0.22141 -1.97637,-18.28646 -1.97637,-19.2917 0,-0.27039 12.39848,-0.30485 12.5653,-0.0349 0.0615,0.0995 0.33187,2.23613 0.60085,4.74806 0.26897,2.51193 0.53707,4.61518 0.59578,4.67388 0.18352,0.18353 13.2766,3.88063 13.74302,3.88063 0.65747,0 13.40854,-3.62769 13.6924,-3.8955 0.27814,-0.26242 1.60946,-14.96322 1.40366,-15.49954 -0.11477,-0.29907 -1.95928,-0.32705 -21.56067,-0.32705 h -21.43516 l -0.1025,-0.45281 c -0.0564,-0.24904 -0.863574,-8.7391 -1.793786,-18.86679 -1.164642,-12.68003 -1.627578,-18.49233 -1.486666,-18.66555 0.304457,-0.37427 61.992562,-0.3687 62.303232,0.006 0.15156,0.18263 0.0724,2.00452 -0.27323,6.28432 -0.26768,3.31492 -0.53092,6.14241 -0.58498,6.2833 -0.0788,0.20539 -4.8041,0.25617 -23.83975,0.25617 -15.0795,0 -23.78536,0.071 -23.86179,0.19471 -0.17251,0.27913 1.11819,11.72924 1.35617,12.03097 0.1566,0.19854 4.90113,0.25156 22.51206,0.25156 h 22.31365 v 0.68815 c 0,0.37849 -0.68358,9.00438 -1.51907,19.16867 -1.01483,12.34601 -1.59935,18.55517 -1.76091,18.70544 -0.30179,0.28069 -24.68069,6.92526 -25.32784,6.9032 -0.25971,-0.009 -6.08087,-1.53173 -12.93591,-3.38418 z m -21.29001,-99.995263 0.05558,-3.074491 2.86248,0.0558 2.862483,0.05581 0.05555,3.068999 0.0556,3.068999 h 3.11608 3.11608 l -0.0523,-9.30762 -0.0523,-9.30762 h -3.01869 -3.01869 l -0.10062,3.018687 -0.100578,3.018688 h -2.81746 -2.817442 l -0.100623,-3.018688 -0.100623,-3.018687 -3.068999,-0.05555 -3.068999,-0.05555 v 9.368414 9.368414 l 3.068999,-0.05555 3.068999,-0.05555 z m 26.81074,-3.059672 v -6.234787 l 0.4528,-0.105271 c 0.24904,-0.0579 1.49425,-0.127548 2.76713,-0.154771 l 2.31433,-0.04949 v -2.918065 -2.918064 h -8.65357 -8.65357 v 2.918064 2.918065 l 2.31432,0.04949 c 1.27288,0.02722 2.51809,0.09687 2.76713,0.154771 l 0.45281,0.105271 v 6.234787 6.234788 h 3.11931 3.11931 z m 14.4897,1.91988 c 0,-2.3732 0.0785,-4.363398 0.17435,-4.422663 0.24597,-0.152021 0.54154,0.238677 2.45789,3.248977 0.932,1.464025 1.7851,2.663239 1.89579,2.664921 0.11068,0.0016 1.0851,-1.359433 2.16537,-3.024698 1.08026,-1.665267 2.05379,-2.972337 2.16339,-2.904602 0.12152,0.0751 0.19927,1.808842 0.19927,4.443305 v 4.32015 l 3.069,-0.05555 3.069,-0.05555 v -9.257309 -9.257308 h -3.30179 -3.30179 l -1.84538,3.018687 c -1.01497,1.660278 -1.9743,3.040948 -2.13185,3.068156 -0.17778,0.0307 -1.00327,-1.135528 -2.17575,-3.073851 l -1.88927,-3.123319 -3.24249,0.05516 -3.2425,0.05516 -0.0523,9.30762 -0.0523,9.30762 h 3.0207 3.0207 z m 33.60805,1.300144 v -3.014763 l -4.3771,-0.05424 -4.37709,-0.05424 -0.10063,-6.238621 -0.10062,-6.238621 -3.069,-0.05555 -3.069,-0.05555 v 9.363172 9.363174 h 7.54672 7.54672 z"
         id="path3678"
         inkscape:connector-curvature="0" />
      <path
         style="fill:#ee8b71;stroke-width:0.20124583"
         d="m 122.01851,244.02858 c -0.49809,-0.0406 -2.12818,-0.17256 -3.62243,-0.29329 C 105.53929,242.69656 91.88449,239.08436 79.867684,233.54305 61.696562,225.16382 45.683278,211.84952 33.845897,195.27803 23.163852,180.32395 16.046869,162.30022 13.5683,143.9251 c -0.813361,-6.02993 -0.927104,-8.00298 -0.916517,-15.89842 0.0105,-7.83208 0.17411,-10.47529 1.008988,-16.30091 C 16.250553,93.654759 23.354424,75.86512 33.845897,61.177819 40.850061,51.372496 49.610622,42.400568 59.122551,35.291312 76.408178,22.371961 96.106818,14.856321 118.39608,12.676629 c 3.63606,-0.355575 16.48852,-0.355575 20.12458,0 11.77426,1.151418 22.53973,3.704578 32.79289,7.77723 20.61743,8.189431 38.65526,22.38206 51.75729,40.72396 10.49149,14.687301 17.59535,32.47694 20.18514,50.547951 0.85041,5.93402 1.00206,8.4315 1.00206,16.50216 0,8.07065 -0.15165,10.56813 -1.00206,16.50216 -2.58979,18.071 -9.69365,35.86064 -20.18514,50.54794 -7.00416,9.80532 -15.76471,18.77726 -25.27665,25.88651 -16.9735,12.68608 -36.29316,20.16991 -58.06605,22.49297 -2.73086,0.29136 -15.42391,0.55733 -17.70963,0.37107 z m 26.95746,-51.1158 c 11.01839,-3.05247 20.09212,-5.61081 20.16384,-5.6852 0.15548,-0.16125 9.20794,-101.294348 9.08646,-101.512836 -0.10975,-0.197366 -99.426006,-0.197366 -99.535922,0 -0.125119,0.224667 8.924107,101.353836 9.084271,101.520786 0.23614,0.24616 39.740081,11.18401 40.473031,11.20618 0.38219,0.0115 9.70993,-2.47646 20.72832,-5.52893 z m -33.38292,-19.43024 c -6.90991,-1.87011 -12.61087,-3.44762 -12.66882,-3.50556 -0.18165,-0.18166 -1.99902,-19.302 -1.85003,-19.46408 0.0778,-0.0847 2.89772,-0.12995 6.26643,-0.10063 l 6.12493,0.0533 0.50311,4.67072 c 0.27672,2.5689 0.59368,4.75891 0.70436,4.86669 0.11069,0.10778 3.24713,1.06584 6.96988,2.12903 l 6.76864,1.93307 6.81546,-1.94175 c 3.7485,-1.06797 6.89415,-2.01498 6.99032,-2.10448 0.19095,-0.17768 1.55771,-15.49289 1.40471,-15.74044 -0.0517,-0.0836 -9.728,-0.15208 -21.50291,-0.15208 -16.09759,0 -21.44494,-0.0583 -21.55407,-0.23485 -0.14433,-0.23353 -3.480326,-35.60502 -3.493918,-37.04594 l -0.0071,-0.75468 h 31.193108 31.1931 l 10e-4,0.75468 c 0.003,1.79942 -0.87331,11.64522 -1.05625,11.8735 -0.15921,0.19868 -5.18773,0.25156 -23.92395,0.25156 h -23.7223 l 1e-5,0.55342 c 2e-5,0.89434 1.19735,11.54339 1.32024,11.74224 0.0656,0.10618 9.38605,0.18158 22.44495,0.18158 17.75721,0 22.35263,0.0519 22.42988,0.25319 0.0534,0.13925 -0.58333,8.51643 -1.41503,18.61595 -0.83171,10.09952 -1.51358,18.56621 -1.51528,18.81486 -0.002,0.24864 -0.0771,0.56883 -0.16768,0.71152 -0.14713,0.23191 -24.9966,7.11685 -25.48808,7.06187 -0.11069,-0.0124 -5.8548,-1.5526 -12.7647,-3.42271 z m -21.34647,-99.792235 0.100623,-3.11931 2.637188,-0.05595 c 2.018683,-0.04283 2.689914,0.0076 2.862004,0.214939 0.136301,0.164235 0.246885,1.414394 0.280875,3.175259 l 0.0561,2.904371 h 3.01869 3.01869 V 67.35106 57.892506 h -3.01869 -3.01869 l -0.10062,3.018687 -0.100623,3.018688 H 97.164645 94.347203 L 94.24658,60.911194 94.145957,57.892507 91.255339,57.83653 c -1.960109,-0.03796 -2.980431,0.01855 -3.169622,0.175577 -0.386215,0.320531 -0.41738,18.276765 -0.03239,18.661756 0.177433,0.177433 1.066603,0.231065 3.169622,0.191184 l 2.923007,-0.05543 z m 26.7657,-3.11931 0.10062,-6.238621 2.71682,-0.100623 2.71682,-0.100623 v -3.119311 -3.11931 h -8.65357 -8.65357 v 3.11931 3.119311 l 2.71681,0.100623 2.71682,0.100623 0.0509,6.037375 c 0.028,3.320556 0.094,6.153007 0.14669,6.294336 0.0731,0.196069 0.80019,0.243759 3.0684,0.201245 l 2.97261,-0.05572 z m 14.44945,6.097748 c 0.17235,-0.172349 0.24149,-1.440026 0.24149,-4.427408 0,-2.302252 0.0679,-4.184706 0.15094,-4.183229 0.083,0.0014 1.0361,1.369146 2.11798,3.039263 1.55578,2.40169 2.02297,2.990163 2.23453,2.814588 0.14711,-0.122094 1.02588,-1.405253 1.95283,-2.851464 0.92694,-1.446213 1.80054,-2.725076 1.94132,-2.841915 0.20575,-0.170759 0.25597,0.616736 0.25597,4.013723 0,3.357147 0.0574,4.273775 0.27901,4.457714 0.18919,0.157016 1.20951,0.213534 3.16962,0.175577 l 2.89062,-0.05598 v -9.458554 -9.458554 l -3.15024,-0.05532 c -2.45554,-0.04313 -3.21099,0.0054 -3.42575,0.220192 -0.15153,0.151534 -1.07944,1.60276 -2.06202,3.224946 -0.98258,1.622186 -1.85798,2.949429 -1.94533,2.949429 -0.0873,0 -0.98286,-1.350215 -1.99003,-3.000477 -1.00716,-1.650262 -1.95311,-3.101647 -2.1021,-3.225301 -0.18046,-0.149763 -1.30328,-0.206234 -3.36312,-0.169145 l -3.09223,0.05568 -0.0525,9.257308 c -0.0288,5.09152 -0.009,9.37051 0.044,9.508866 0.13351,0.348224 5.55755,0.357465 5.90496,0.01006 z m 33.60805,0 c 0.35764,-0.35764 0.33483,-5.669139 -0.0256,-5.968295 -0.17077,-0.141723 -1.78608,-0.24136 -4.47772,-0.2762 l -4.21059,-0.0545 -0.10063,-6.238621 -0.10062,-6.238621 h -3.01869 -3.01868 l -0.0524,9.257308 c -0.0289,5.09152 -0.009,9.37051 0.044,9.508866 0.1367,0.356553 14.6048,0.366284 14.96102,0.01006 z"
         id="path3676"
         inkscape:connector-curvature="0" />
      <path
         style="fill:#ea6f4f;stroke-width:0.20124583"
         d="M 122.8611,243.92865 C 110.46935,243.34131 97.870728,240.66909 86.397993,236.19469 60.675197,226.1627 39.27115,207.14101 26.195285,182.69277 c -18.07394,-33.79325 -18.07394,-75.13643 0,-108.929684 13.075865,-24.448238 34.479912,-43.469932 60.202708,-53.501914 26.840607,-10.4679357 57.280147,-10.4679357 84.120757,0 25.7228,10.031982 47.12685,29.053676 60.20271,53.501914 18.07393,33.793254 18.07393,75.136434 0,108.929684 -13.07454,24.44576 -34.48252,43.47094 -60.20271,53.50192 -11.73522,4.57677 -23.90282,7.12247 -37.02923,7.74724 -4.55408,0.21676 -5.80808,0.21519 -10.62842,-0.0133 z m 26.02835,-50.88192 c 11.1388,-3.08948 20.30418,-5.66904 20.3675,-5.73237 0.17758,-0.17757 9.16888,-101.307844 9.03753,-101.650153 -0.10242,-0.2669 -5.84236,-0.301643 -49.83611,-0.301643 -44.043134,0 -49.733597,0.03452 -49.836361,0.302319 -0.143255,0.373317 8.855056,101.466747 9.048783,101.660477 0.163327,0.16333 40.121228,11.30053 40.625378,11.32325 0.18751,0.008 9.45448,-2.5124 20.59328,-5.60188 z m -33.39761,-19.71337 c -6.85488,-1.85054 -12.48994,-3.4512 -12.52235,-3.55702 -0.12559,-0.41006 -1.89679,-19.05972 -1.81766,-19.13885 0.10429,-0.10429 12.03783,-0.11238 12.14198,-0.008 0.0416,0.0416 0.29706,2.14147 0.5677,4.66641 0.27065,2.52493 0.57848,4.67718 0.68407,4.78277 0.24585,0.24585 13.25219,3.97125 13.86466,3.97125 0.55594,0 13.74429,-3.75283 13.95698,-3.97155 0.20694,-0.2128 1.47795,-15.42147 1.32262,-15.82624 -0.11463,-0.29874 -1.96689,-0.3268 -21.57071,-0.3268 -16.97652,0 -21.46312,-0.0524 -21.53075,-0.25156 -0.15332,-0.45142 -3.49263,-37.26994 -3.394637,-37.42849 0.128224,-0.20747 62.004107,-0.19847 62.132357,0.009 0.0555,0.0898 -0.11829,2.87451 -0.38614,6.18831 -0.26786,3.31381 -0.48902,6.09303 -0.49148,6.17604 -0.002,0.083 -10.66799,0.15232 -23.70118,0.15402 -13.03318,0.002 -23.81424,0.0776 -23.9579,0.16877 -0.21115,0.13394 -0.13752,1.30758 0.38423,6.12459 0.35499,3.27739 0.71827,6.07674 0.80729,6.22078 0.13101,0.212 4.40913,0.27104 22.45717,0.30994 l 22.29532,0.048 0.0589,0.55569 c 0.0875,0.82503 -2.96526,37.55512 -3.13414,37.70973 -0.23537,0.21547 -24.73963,6.81956 -25.24256,6.80307 -0.2532,-0.008 -6.0689,-1.52918 -12.92378,-3.37972 z M 94.325672,76.59191 c 0.06719,-0.17508 0.122154,-1.57877 0.122154,-3.119311 v -2.800981 h 2.711577 2.711578 l 0.05555,3.068998 0.05555,3.068999 h 3.219929 3.21993 v -9.458554 -9.458554 h -3.21993 -3.219929 l -0.100623,3.018687 -0.100623,3.018688 -2.666507,0.05615 -2.666508,0.05615 -0.0031,-2.873593 C 94.44312,59.588111 94.36825,58.17935 94.278551,58.038005 94.155166,57.843577 93.359834,57.794588 91.01139,57.836759 l -3.10408,0.05574 -0.05228,9.508866 -0.05228,9.508865 h 3.200372 c 2.732675,0 3.218225,-0.04652 3.322527,-0.318328 z m 26.887848,-6.020915 0.10063,-6.238621 2.60823,-0.05664 c 1.77681,-0.03858 2.6579,-0.134811 2.76405,-0.301869 0.20624,-0.324591 0.20157,-5.606791 -0.005,-5.932588 -0.12639,-0.199103 -2.04278,-0.242427 -8.90204,-0.201246 l -8.74098,0.05248 v 3.11931 3.119311 l 2.71682,0.100623 2.71682,0.100623 0.0509,6.037375 c 0.028,3.320556 0.094,6.152886 0.14659,6.294064 0.0732,0.196488 0.84007,0.243686 3.26964,0.201246 l 3.17397,-0.05544 z m 14.4897,2.124958 c 0,-2.317857 0.0715,-4.258478 0.1589,-4.312491 0.0874,-0.05401 1.00641,1.212549 2.04227,2.81458 1.24683,1.92834 1.98738,2.892736 2.19112,2.853459 0.16927,-0.03263 1.12939,-1.34852 2.13359,-2.924199 1.0042,-1.57568 1.89194,-2.866169 1.97276,-2.867753 0.0808,-0.0016 0.17137,1.921532 0.20124,4.273592 l 0.0543,4.276474 3.10407,0.05574 c 2.34845,0.04217 3.14378,-0.0068 3.26717,-0.201246 0.18718,-0.294954 0.2323,-18.071263 0.0471,-18.5539 -0.10445,-0.272189 -0.5958,-0.318329 -3.38999,-0.318329 -2.86256,0 -3.30543,0.04368 -3.571,0.35218 -0.16675,0.193699 -1.05729,1.599542 -1.97899,3.124094 -0.9217,1.524554 -1.75826,2.744432 -1.85904,2.71084 -0.10077,-0.03359 -1.01563,-1.416795 -2.03302,-3.073785 l -1.8498,-3.012706 h -3.41496 -3.41497 l -0.0524,9.257308 c -0.0289,5.09152 -0.009,9.37051 0.044,9.508866 0.0714,0.186307 0.90718,0.251557 3.22208,0.251557 h 3.12562 z m 33.50743,0.994352 v -3.11931 l -4.32678,-0.100623 -4.32679,-0.100623 -0.10062,-6.238621 -0.10062,-6.238621 h -3.21994 -3.21993 l -0.0524,9.257308 c -0.0289,5.09152 -0.009,9.3716 0.0449,9.511291 0.0765,0.19958 1.72581,0.242687 7.69979,0.201246 l 7.60241,-0.05274 z"
         id="path3674"
         inkscape:connector-curvature="0" />
      <path
         style="fill:#e34c25;stroke-width:0.20124583"
         d="m 121.74657,243.74432 c -15.04806,-0.99129 -28.6986,-4.43411 -42.090313,-10.61561 -9.01691,-4.16215 -18.481369,-10.23977 -26.262581,-16.86456 -3.165622,-2.69517 -10.929245,-10.51277 -13.470495,-13.56414 -14.034186,-16.85136 -22.890682,-36.59775 -25.95509,-57.8693 -0.866717,-6.01631 -1.104112,-9.58607 -1.104112,-16.60278 0,-7.01671 0.237395,-10.58648 1.104112,-16.60278 3.064408,-21.271559 11.920904,-41.017945 25.95509,-57.869314 2.54125,-3.051371 10.304873,-10.868955 13.470495,-13.564118 16.602479,-14.135105 36.991047,-23.360951 58.461914,-26.454073 6.01631,-0.866717 9.58607,-1.104112 16.60278,-1.104112 7.01671,0 10.58648,0.237395 16.60278,1.104112 21.47087,3.093122 41.85944,12.318968 58.46192,26.454073 3.16562,2.695163 10.92924,10.512747 13.47049,13.564118 14.0342,16.851369 22.89069,36.597755 25.9551,57.869314 0.8667,6.0163 1.10411,9.58607 1.10411,16.60278 0,7.01671 -0.23741,10.58647 -1.10411,16.60278 -3.06441,21.27155 -11.9209,41.01794 -25.9551,57.8693 -2.54125,3.05137 -10.30487,10.86897 -13.47049,13.56414 -16.60228,14.13492 -37.00367,23.36637 -58.46192,26.45352 -6.86062,0.98701 -17.0831,1.43716 -23.31458,1.02665 z m 27.09893,-50.52533 c 11.20083,-3.10543 20.43384,-5.71433 20.51778,-5.79758 0.0839,-0.0832 2.19284,-22.99928 4.68644,-50.92454 3.47933,-38.964327 4.47953,-50.838588 4.30045,-51.054372 -0.35041,-0.422223 -99.432835,-0.42264 -99.783246,-4.02e-4 -0.346103,0.417026 8.694498,101.772764 9.101107,102.034114 0.277174,0.17815 40.029079,11.3206 40.549769,11.36609 0.14439,0.0126 9.42686,-2.51787 20.6277,-5.6233 z m -33.36685,-20.04672 c -6.75145,-1.8253 -12.30184,-3.3452 -12.3342,-3.37757 -0.0696,-0.0696 -1.85026,-18.11551 -1.85264,-18.77568 l -0.002,-0.45281 h 5.93292 5.93292 l 0.0932,0.45281 c 0.0513,0.24904 0.28387,2.35457 0.51687,4.67896 0.2579,2.57267 0.52199,4.32557 0.67498,4.48024 0.13824,0.13974 3.3524,1.13046 7.14259,2.2016 l 6.89125,1.94754 6.95406,-1.98307 c 5.82175,-1.66017 6.98216,-2.05142 7.1267,-2.40285 0.095,-0.23088 0.45908,-3.85456 0.80916,-8.05262 0.61186,-7.33729 0.62242,-7.64313 0.27264,-7.8989 -0.29625,-0.21662 -4.32095,-0.26606 -21.65746,-0.26606 -11.71148,0 -21.29359,-0.0406 -21.29359,-0.0903 0,-0.0497 -0.769768,-8.42587 -1.710593,-18.61375 -0.940824,-10.18789 -1.710589,-18.56938 -1.710589,-18.62554 0,-0.0562 13.958842,-0.10211 31.019652,-0.10211 h 31.01965 l -0.1204,1.25779 c -0.0662,0.69178 -0.2677,3.2954 -0.44774,5.78581 -0.18003,2.49042 -0.3874,4.68716 -0.46082,4.88164 -0.12614,0.33416 -1.43572,0.35628 -23.82012,0.40249 -15.4572,0.0319 -23.75644,0.11881 -23.88753,0.25014 -0.21161,0.212 0.98803,12.0931 1.26656,12.54377 0.1096,0.17733 5.64605,0.23534 22.45998,0.23534 12.273,0 22.35195,0.0679 22.39769,0.15093 0.099,0.1798 -2.99386,37.86738 -3.11784,37.99136 -0.2264,0.2264 -24.60945,6.73319 -25.17284,6.71756 -0.35612,-0.01 -6.17141,-1.51139 -12.92286,-3.33669 z m -21.075893,-99.230408 0.05555,-3.068999 h 2.610955 2.610954 v 2.877816 c 0,1.969973 0.07618,2.953997 0.241495,3.11931 0.337589,0.337592 6.223029,0.337592 6.560619,0 0.34768,-0.34768 0.34768,-18.690175 0,-19.037856 -0.33759,-0.337592 -6.22303,-0.337592 -6.560619,0 -0.16536,0.16536 -0.241495,1.150674 -0.241495,3.125324 v 2.883827 l -2.565884,-0.05632 -2.565885,-0.05633 -0.100623,-3.018687 -0.100623,-3.018688 h -3.320556 -3.320556 l -0.05243,9.458554 c -0.02883,5.202205 -0.0082,9.574007 0.04592,9.715119 0.07536,0.196587 0.863834,0.243632 3.372985,0.201246 l 3.27464,-0.05532 z m 26.770513,2.928127 c 0.1772,-0.177193 0.2415,-1.86358 0.2415,-6.333401 v -6.091909 l 2.66651,-0.05615 2.6665,-0.05615 v -3.320557 -3.320556 l -8.80868,-0.05243 -8.80868,-0.05243 -0.19707,0.518333 c -0.26231,0.689933 -0.2533,5.444672 0.0112,5.939 0.18952,0.354122 0.44385,0.389262 2.81744,0.389262 h 2.60912 v 6.020915 c 0,3.311504 0.055,6.164164 0.12216,6.339244 0.10421,0.271561 0.58613,0.318328 3.28031,0.318328 2.18801,0 3.23233,-0.07418 3.39964,-0.241495 z m 14.7312,-4.08529 0.10062,-4.226163 0.72336,1.106852 c 0.39784,0.608769 1.23606,1.899258 1.86271,2.867753 0.62664,0.968496 1.27914,1.760902 1.45,1.760902 0.1781,0 1.10067,-1.214288 2.16221,-2.845898 l 1.85155,-2.845896 0.11096,4.204305 c 0.061,2.312369 0.12894,4.229191 0.15093,4.259604 0.022,0.03041 1.51159,0.03041 3.31023,0 l 3.27024,-0.0553 v -9.6598 -9.6598 l -3.11931,-0.05761 c -1.71562,-0.03168 -3.30043,-0.01073 -3.5218,0.04656 -0.25605,0.06627 -1.06145,1.203579 -2.2137,3.126 -0.99617,1.662006 -1.86427,3.022104 -1.9291,3.022438 -0.0648,4.03e-4 -0.8707,-1.244603 -1.79079,-2.766524 -0.9201,-1.521922 -1.80933,-2.925612 -1.97608,-3.119311 -0.26543,-0.308348 -0.70755,-0.35218 -3.55228,-0.35218 -2.25877,0 -3.32273,0.07361 -3.49062,0.241495 -0.35193,0.351935 -0.34723,18.690621 0.005,19.042736 0.1782,0.178206 1.11092,0.231105 3.37086,0.191184 l 3.12451,-0.05519 z m 33.56311,1.13394 c 0.038,-2.109159 -0.0178,-3.18081 -0.17558,-3.370868 -0.18348,-0.221081 -1.09924,-0.278645 -4.43277,-0.278645 h -4.20152 v -5.949982 c 0,-3.716622 -0.0782,-6.096095 -0.20833,-6.339244 -0.19252,-0.359729 -0.45045,-0.389262 -3.39965,-0.389262 -2.72442,0 -3.20919,0.04657 -3.31347,0.318329 -0.16012,0.417241 -0.15926,18.469185 8e-4,18.886531 0.11014,0.287015 0.93917,0.315145 7.8989,0.268017 l 7.77594,-0.05265 z"
         id="path3672"
         inkscape:connector-curvature="0" />
    </g>
  </g>
</svg>
