<?xml version="1.0" encoding="UTF-8" standalone="no"?>
<!-- Created with Inkscape (http://www.inkscape.org/) -->

<svg
   xmlns:dc="http://purl.org/dc/elements/1.1/"
   xmlns:cc="http://creativecommons.org/ns#"
   xmlns:rdf="http://www.w3.org/1999/02/22-rdf-syntax-ns#"
   xmlns:svg="http://www.w3.org/2000/svg"
   xmlns="http://www.w3.org/2000/svg"
   xmlns:sodipodi="http://sodipodi.sourceforge.net/DTD/sodipodi-0.dtd"
   xmlns:inkscape="http://www.inkscape.org/namespaces/inkscape"
   width="256px"
   height="256px"
   viewBox="0 0 256 256"
   version="1.1"
   id="SVGRoot"
   inkscape:version="0.92.3 (2405546, 2018-03-11)"
   sodipodi:docname="icon_mariadb.svg">
  <sodipodi:namedview
     id="base"
     pagecolor="#ffffff"
     bordercolor="#666666"
     borderopacity="1.0"
     inkscape:pageopacity="0.0"
     inkscape:pageshadow="2"
     inkscape:zoom="1"
     inkscape:cx="187.957"
     inkscape:cy="86.641702"
     inkscape:document-units="px"
     inkscape:current-layer="layer1"
     showgrid="false"
     inkscape:window-width="1024"
     inkscape:window-height="705"
     inkscape:window-x="-4"
     inkscape:window-y="-4"
     inkscape:window-maximized="1"
     inkscape:grid-bbox="true">
    <sodipodi:guide
       position="0,0"
       orientation="0,256"
       id="guide2135"
       inkscape:locked="false" />
    <sodipodi:guide
       position="256,0"
       orientation="-256,0"
       id="guide2137"
       inkscape:locked="false" />
    <sodipodi:guide
       position="256,256"
       orientation="0,-256"
       id="guide2139"
       inkscape:locked="false" />
    <sodipodi:guide
       position="0,256"
       orientation="256,0"
       id="guide2141"
       inkscape:locked="false" />
  </sodipodi:namedview>
  <defs
     id="defs881" />
  <metadata
     id="metadata884">
    <rdf:RDF>
      <cc:Work
         rdf:about="">
        <dc:format>image/svg+xml</dc:format>
        <dc:type
           rdf:resource="http://purl.org/dc/dcmitype/StillImage" />
        <dc:title></dc:title>
      </cc:Work>
    </rdf:RDF>
  </metadata>
  <g
     id="layer1"
     inkscape:groupmode="layer"
     inkscape:label="Camada 1">
    <rect
       style="fill:#ffffff;fill-opacity:1;stroke:none;stroke-width:2.66499996;stroke-linecap:butt;stroke-linejoin:miter;stroke-miterlimit:0;stroke-dasharray:none;stroke-opacity:1;paint-order:markers stroke fill"
       id="rect2143"
       width="256"
       height="256"
       x="0"
       y="0"
       ry="31" />
    <path
       inkscape:connector-curvature="0"
       class="cls-1"
       d="m 48.615575,185.74276 8.544362,33.04681 H 50.70993 L 45.018747,194.98525 34.288972,218.78957 H 28.840613 L 18.171542,195.12183 12.313418,218.78957 H 6 l 8.468479,-33.04681 h 5.584948 l 11.53413,25.58757 11.488601,-25.58757 z"
       id="path5114"
       style="fill:#3771c8;stroke-width:0.75882435" />
    <path
       inkscape:connector-curvature="0"
       class="cls-1"
       d="m 81.525785,198.51378 v -3.84725 h 6.229948 v 24.12304 h -6.229948 v -3.88519 c -1.646647,2.79248 -5.030999,4.3936 -9.151419,4.3936 -8.612657,0 -13.416015,-6.07059 -13.416015,-13.05178 0,-6.73077 4.552946,-12.14119 12.497837,-12.14119 4.530186,0.0532 8.286367,1.57077 10.069597,4.40877 z m -15.935309,8.05871 c 0,4.43913 2.792473,8.24085 8.195303,8.24085 5.213127,0 8.051128,-3.71067 8.051128,-8.10425 0,-4.3936 -2.929059,-8.14978 -8.347069,-8.14978 -5.190358,0 -7.891774,3.74859 -7.891774,8.01318 z"
       id="path5116"
       style="fill:#3771c8;stroke-width:0.75882435" />
    <path
       inkscape:connector-curvature="0"
       class="cls-1"
       d="m 101.80157,218.78957 h -6.22236 v -24.12304 h 6.22236 v 5.40283 a 9.5460101,9.5460101 0 0 1 8.69613,-5.91123 11.260954,11.260954 0 0 1 3.89277,0.63742 l -1.32794,4.55292 a 13.658837,13.658837 0 0 0 -3.2933,-0.45528 c -4.49224,0 -7.96766,3.38435 -7.96766,8.34707 z"
       id="path5118"
       style="fill:#3771c8;stroke-width:0.75882435" />
    <path
       inkscape:connector-curvature="0"
       class="cls-1"
       d="m 117.50165,188.3 a 3.1642975,3.1642975 0 0 1 3.33883,-3.24777 3.2857095,3.2857095 0 0 1 3.39194,3.34643 3.1491211,3.1491211 0 0 1 -3.39194,3.20223 3.2022388,3.2022388 0 0 1 -3.33883,-3.30089 z m 0.27318,6.36653 h 6.22995 v 17.6275 c 0,1.0927 0.22764,1.8743 1.13823,1.8743 a 6.7155955,6.7155955 0 0 0 1.19136,-0.1366 l 0.9637,4.55297 a 10.896717,10.896717 0 0 1 -4.12041,0.7588 c -2.61035,0 -5.40283,-0.7588 -5.40283,-6.68524 z"
       id="path5120"
       style="fill:#3771c8;stroke-width:0.75882435" />
    <path
       inkscape:connector-curvature="0"
       class="cls-1"
       d="m 151.83086,198.51378 v -3.84725 h 6.25271 v 24.12304 h -6.22994 v -3.88519 c -1.64665,2.79248 -5.03099,4.3936 -9.15143,4.3936 -8.60507,0 -13.41601,-6.07059 -13.41601,-13.05178 0,-6.73077 4.55294,-12.14119 12.49784,-12.14119 4.50742,0.0532 8.2636,1.57077 10.04683,4.40877 z m -15.93531,8.05871 c 0,4.43913 2.79248,8.24085 8.19531,8.24085 5.22072,0 8.05871,-3.71067 8.05871,-8.10425 0,-4.3936 -2.93664,-8.14978 -8.34707,-8.14978 -5.19793,0 -7.89935,3.74859 -7.89935,8.01318 z"
       id="path5122"
       style="fill:#3771c8;stroke-width:0.75882435" />
    <path
       inkscape:connector-curvature="0"
       class="cls-1"
       d="m 167.622,185.74276 h 14.92608 c 12.54336,0 18.81126,6.91289 18.7202,16.51961 0.091,9.98613 -6.82943,16.5272 -17.61991,16.5272 H 167.622 Z m 4.12041,2.92907 v 27.23419 h 11.38236 c 9.97855,0 13.78026,-6.73075 13.78026,-13.73471 0,-7.91453 -4.75784,-13.49948 -13.78026,-13.49948 z"
       id="path5124"
       style="fill:#3771c8;stroke-width:0.75882435" />
    <path
       inkscape:connector-curvature="0"
       class="cls-1"
       d="m 226.71924,218.78957 h -18.97061 v -33.04681 h 17.11149 c 6.54106,0 12.77102,1.2293 12.67995,8.55954 0,5.16761 -3.20982,6.59419 -6.59418,7.14055 4.80336,0.40976 7.69448,3.47541 7.69448,8.42295 0.0305,7.41372 -6.47279,8.92377 -11.92113,8.92377 z m -1.419,-18.62913 c 6.54864,0 8.01318,-2.5193 8.01318,-5.72154 0,-4.81095 -2.92905,-5.90366 -8.01318,-5.90366 h -13.59813 v 11.6252 z m 0.18211,2.79247 h -13.78024 v 13.04419 h 14.37212 c 4.02937,0 8.28637,-1.32794 8.28637,-6.40448 0,-5.85814 -4.89443,-6.63971 -8.87825,-6.63971 z"
       id="path5126"
       style="fill:#3771c8;stroke-width:0.75882435" />
    <path
       inkscape:connector-curvature="0"
       class="cls-1"
       d="m 240.09731,28.241187 a 3.1718858,3.1718858 0 0 0 -2.15505,-0.720883 c -2.14748,0 -4.92478,1.456942 -6.41967,2.238531 l -0.59187,0.30353 a 20.382023,20.382023 0 0 1 -8.02078,2.018473 c -2.85319,0.09106 -5.31178,0.258 -8.51401,0.591883 -18.97061,1.950179 -27.43149,16.489254 -35.58126,30.550268 -4.43913,7.648948 -9.02244,15.59384 -15.3055,21.664433 a 41.280045,41.280045 0 0 1 -4.13559,3.513358 c -6.50313,4.833709 -14.66807,8.286363 -21.01943,10.729777 -6.11612,2.337173 -12.79379,4.439123 -19.2438,6.472773 -5.91124,1.85912 -11.48859,3.61959 -16.61825,5.52424 -2.31441,0.85746 -4.27976,1.51763 -6.017468,2.09436 -4.674361,1.51764 -8.043542,2.67864 -12.96831,6.07058 -1.919832,1.31278 -3.84724,2.73178 -5.15242,3.79413 a 54.347,54.347 0 0 0 -10.282069,10.82843 63.93095,63.93095 0 0 1 -8.635422,10.36554 c -1.039589,1.01683 -2.883533,1.51764 -5.645654,1.51764 -3.232592,0 -7.155713,-0.66775 -11.306484,-1.37347 -4.279768,-0.75884 -8.703714,-1.4797 -12.497835,-1.4797 -3.080828,0 -5.440771,0.50082 -7.201243,1.51764 0,0 -2.967004,1.73011 -4.219064,3.96866 l 1.229296,0.55393 a 25.200557,25.200557 0 0 1 5.251065,3.79412 26.346381,26.346381 0 0 0 5.463535,3.88519 4.6895344,4.6895344 0 0 1 1.684589,1.06994 c -0.516,0.75882 -1.274825,1.7377 -2.07159,2.7849 -4.378417,5.72912 -6.935654,9.34869 -5.471123,11.32165 a 4.6060638,4.6060638 0 0 0 2.276472,0.51599 c 9.546011,0 14.675663,-2.48135 21.163611,-5.62288 1.881885,-0.91059 3.794122,-1.84395 6.070596,-2.80766 3.794121,-1.64664 7.876597,-4.27217 12.209483,-7.04947 5.668419,-3.69548 11.594836,-7.4896 17.346726,-9.31836 A 47.274757,47.274757 0 0 1 98.31099,145.5099 c 6.07058,0 12.45989,0.81194 18.62153,1.60112 4.59089,0.59188 9.34873,1.19895 14.0155,1.47971 1.81359,0.10625 3.49059,0.15935 5.12206,0.15935 a 59.347652,59.347652 0 0 0 6.53347,-0.34148 l 0.5236,-0.18209 c 3.27053,-2.01091 4.80335,-6.32862 6.29066,-10.50215 0.95611,-2.68624 1.76045,-5.0993 3.0353,-6.63211 a 1.935002,1.935002 0 0 1 0.24281,-0.2049 0.30352975,0.30352975 0 0 1 0.37184,0.0607 c 0,0 0,0.0379 0,0.12145 -0.75883,16.32233 -7.33027,26.68786 -13.97757,35.9 l -4.43911,4.75781 c 0,0 6.21476,0 9.75089,-1.36587 12.90002,-3.85484 22.63574,-12.35366 29.72315,-25.90626 a 110.5607,110.5607 0 0 0 4.68195,-10.69185 c 0.12145,-0.30353 1.23688,-0.86506 1.13063,0.7057 -0.0379,0.4629 -0.0682,0.97889 -0.10624,1.51766 v 0 c 0,0.31871 0,0.645 -0.0606,0.9713 -0.18212,2.27646 -0.72088,7.08741 -0.72088,7.08741 l 3.98382,-2.13229 c 9.60673,-6.0706 17.01285,-18.31801 22.62814,-37.3721 2.33719,-7.937311 4.05212,-15.821492 5.56218,-22.764732 1.80601,-8.347068 3.3616,-15.50278 5.14484,-18.280077 2.80006,-4.355652 7.07224,-7.299891 11.20783,-10.160658 0.56152,-0.387 1.13065,-0.758825 1.68459,-1.16859 5.19795,-3.649946 10.36554,-7.861419 11.50377,-15.715252 v -0.17453 c 0.82713,-5.858124 0.12902,-7.353007 -0.66776,-8.03595 z"
       id="path5128"
       style="fill:#3771c8;stroke-width:0.75882435" />
  </g>
</svg>
