<?xml version="1.0" encoding="UTF-8" standalone="no"?>
<!-- Created with Inkscape (http://www.inkscape.org/) -->

<svg
   xmlns:dc="http://purl.org/dc/elements/1.1/"
   xmlns:cc="http://creativecommons.org/ns#"
   xmlns:rdf="http://www.w3.org/1999/02/22-rdf-syntax-ns#"
   xmlns:svg="http://www.w3.org/2000/svg"
   xmlns="http://www.w3.org/2000/svg"
   xmlns:sodipodi="http://sodipodi.sourceforge.net/DTD/sodipodi-0.dtd"
   xmlns:inkscape="http://www.inkscape.org/namespaces/inkscape"
   width="256px"
   height="256px"
   viewBox="0 0 256 256"
   version="1.1"
   id="SVGRoot"
   inkscape:version="0.92.3 (2405546, 2018-03-11)"
   sodipodi:docname="icon_php.svg">
  <sodipodi:namedview
     id="base"
     pagecolor="#ffffff"
     bordercolor="#666666"
     borderopacity="1.0"
     inkscape:pageopacity="0.0"
     inkscape:pageshadow="2"
     inkscape:zoom="1.4142136"
     inkscape:cx="227.89262"
     inkscape:cy="95.308373"
     inkscape:document-units="px"
     inkscape:current-layer="layer1"
     showgrid="false"
     inkscape:window-width="1024"
     inkscape:window-height="705"
     inkscape:window-x="-4"
     inkscape:window-y="-4"
     inkscape:window-maximized="1"
     inkscape:grid-bbox="true">
    <sodipodi:guide
       position="0,0"
       orientation="0,256"
       id="guide2135"
       inkscape:locked="false" />
    <sodipodi:guide
       position="256,0"
       orientation="-256,0"
       id="guide2137"
       inkscape:locked="false" />
    <sodipodi:guide
       position="256,256"
       orientation="0,-256"
       id="guide2139"
       inkscape:locked="false" />
    <sodipodi:guide
       position="0,256"
       orientation="256,0"
       id="guide2141"
       inkscape:locked="false" />
  </sodipodi:namedview>
  <defs
     id="defs881">
    <linearGradient
       id="linearGradient4689">
      <stop
         style="stop-color:#5a9fd4;stop-opacity:1;"
         offset="0"
         id="stop4691" />
      <stop
         style="stop-color:#306998;stop-opacity:1;"
         offset="1"
         id="stop4693" />
    </linearGradient>
    <linearGradient
       id="linearGradient4671">
      <stop
         style="stop-color:#ffd43b;stop-opacity:1;"
         offset="0"
         id="stop4673" />
      <stop
         style="stop-color:#ffe873;stop-opacity:1"
         offset="1"
         id="stop4675" />
    </linearGradient>
  </defs>
  <metadata
     id="metadata884">
    <rdf:RDF>
      <cc:Work
         rdf:about="">
        <dc:format>image/svg+xml</dc:format>
        <dc:type
           rdf:resource="http://purl.org/dc/dcmitype/StillImage" />
        <dc:title></dc:title>
      </cc:Work>
    </rdf:RDF>
  </metadata>
  <g
     id="layer1"
     inkscape:groupmode="layer"
     inkscape:label="Camada 1">
    <rect
       style="fill:#ffffff;fill-opacity:1;stroke:none;stroke-width:2.66499996;stroke-linecap:butt;stroke-linejoin:miter;stroke-miterlimit:0;stroke-dasharray:none;stroke-opacity:1;paint-order:markers stroke fill"
       id="rect2143"
       width="256"
       height="256"
       x="0"
       y="0"
       ry="31" />
    <g
       id="g12541"
       transform="translate(-285.58579,-49.229518)">
      <path
         style="fill:#abb0ca"
         d="M 397.91939,276.98951 C 381.92068,274.28178 365.9284,267.53689 353.38538,258.20688 302.69198,220.49904 297.03639,147.56177 341.3832,103.42089 362.66386,82.239053 388.89752,71.930523 418,73.314277 c 25.29365,1.202653 46.9386,10.301717 65.0199,27.332943 9.74671,9.18067 16.13779,17.82018 22.0836,29.85278 7.40354,14.9826 10.1431,26.73155 10.25969,44 0.12879,19.07677 -2.56455,30.82442 -10.89019,47.5 -5.51788,11.05187 -11.55278,18.97366 -21.82645,28.65077 -19.11293,18.00309 -43.63349,27.5384 -70.02754,27.23161 -5.56546,-0.0647 -12.18028,-0.46648 -14.69962,-0.89287 z M 357.95539,201 359.5,194.5 369.6649,194 c 9.29193,-0.45706 10.5348,-0.76004 14.47207,-3.52793 2.36895,-1.66536 5.66806,-4.96422 7.33136,-7.33081 2.61519,-3.72097 3.07191,-5.35389 3.3771,-12.07432 0.34006,-7.48836 0.24006,-7.89998 -2.74543,-11.30027 -2.06968,-2.35723 -4.57368,-3.90032 -7.542,-4.64775 -5.40912,-1.36203 -28.20852,-1.4934 -29.02813,-0.16726 C 354.87735,156.00747 345,204.58963 345,206.7433 c 0,1.01855 1.42143,1.28179 5.70539,1.0566 l 5.7054,-0.2999 z m 5.73293,-17.25 c -1.56802,-1.15709 -1.58274,-1.88181 -0.19802,-9.75 1.79903,-10.2223 2.92709,-11.41677 9.93267,-10.5173 6.22283,0.79897 8.40152,1.96981 9.13993,4.91188 0.85372,3.40152 -1.17649,9.89378 -3.89154,12.44443 -3.99098,3.74934 -11.79283,5.26513 -14.98304,2.91099 z m 87.34916,18.5 c 0.6486,-3.1625 1.63561,-6.3125 2.19334,-7 0.65761,-0.81061 3.871,-1.25772 9.14162,-1.27196 9.12292,-0.0246 14.25793,-1.80283 18.97809,-6.57181 9.49333,-9.59153 9.91178,-24.98516 0.83198,-30.60631 -3.29408,-2.03932 -5.15921,-2.31201 -17.68251,-2.58528 -7.7,-0.16803 -14.49663,0.0524 -15.10363,0.48993 -1.18567,0.85455 -11.48696,51.29435 -10.73132,52.54543 0.24914,0.4125 2.86952,0.75 5.82307,0.75 h 5.37008 z M 457.75,184.36086 c -0.97582,-0.28299 -1.74948,-1.47045 -1.74882,-2.68418 0.002,-4.61975 2.88318,-16.99124 4.15839,-17.85881 1.97238,-1.34188 11.96963,-0.0109 14.04834,1.87029 3.78789,3.42799 1.16408,14.43684 -4.11408,17.26162 -2.38529,1.27657 -9.86088,2.13114 -12.34383,1.41108 z m -53.25,9.72471 c 1.65096,-0.63881 2.52357,-3.288 5,-15.17972 l 3,-14.40585 4.93373,-0.31229 c 5.93656,-0.37578 9.16576,0.3262 9.86337,2.14412 0.28473,0.74201 -0.56259,7.0938 -1.88293,14.11509 -1.32034,7.02129 -2.15211,13.16808 -1.84838,13.65953 0.69088,1.11787 11.13471,1.18716 11.81995,0.0784 C 436.298,192.70881 440,169.36705 440,165.09116 c 0,-7.40139 -4.20968,-9.69411 -19,-10.348 -6.15332,-0.27204 -6.23108,-0.43277 -4.59272,-9.49316 L 417.1758,141 h -6.017 -6.017 l -1.06559,5.25 c -5.35242,26.37069 -9.04354,46.99385 -8.55298,47.78758 0.69825,1.1298 6.10618,1.15871 8.97677,0.048 z"
         id="path12553"
         inkscape:connector-curvature="0" />
      <path
         style="fill:#8a92b6"
         d="m 403.5,276.84335 c -41.77494,-3.46067 -78.10756,-35.2245 -88.72629,-77.56903 -3.15565,-12.58386 -3.14444,-35.0072 0.0238,-47.64885 7.63452,-30.46253 28.1803,-55.37249 56.69125,-68.733174 C 386.49837,75.858555 392.88018,74.6142 414,74.603258 c 17.29841,-0.009 19.07039,0.166303 27.28184,2.698427 18.11534,5.586136 32.31192,14.320786 45.22456,27.825075 20.44352,21.38022 29.52661,45.55274 28.22426,75.11228 C 512.14218,238.99001 462.8926,281.76349 403.5,276.84335 Z m -46.88151,-69.03507 c 0.40509,-0.65545 1.23612,-3.69295 1.84674,-6.75 l 1.11021,-5.55828 9.03418,-0.57458 c 10.62695,-0.67588 16.83033,-3.20946 21.38374,-8.73353 6.13726,-7.44556 7.74073,-19.99114 3.32519,-26.01638 -3.84154,-5.24199 -7.38694,-6.17225 -23.53001,-6.17396 L 355.07709,154 l -0.98607,3.75 c -0.54234,2.0625 -2.96063,13.97156 -5.37397,26.46458 -3.02534,15.66111 -4.06637,23.0361 -3.35247,23.75 1.4301,1.4301 10.35003,1.30621 11.25391,-0.1563 z M 363,181.68366 c 0,-2.39383 1.72112,-12.8484 2.62314,-15.93366 0.41007,-1.40262 1.64512,-1.75 6.22174,-1.75 C 379.16642,164 382,165.83848 382,170.58882 382,179.37222 377.00758,184 367.53212,184 363.46035,184 363,183.76472 363,181.68366 Z M 449.78807,207.75 c 0.56813,-0.6875 1.33752,-3.05 1.70976,-5.25 1.29156,-7.63326 0.71893,-7.22448 10.78212,-7.69692 10.81116,-0.50756 15.61187,-2.52222 20.99436,-8.81045 4.27481,-4.99415 6.1232,-11.18562 5.51801,-18.48343 -0.33387,-4.02599 -1.1138,-6.2356 -2.87523,-8.14577 C 481.71749,154.80922 478.26144,154 463.01068,154 c -13.62714,0 -14.08226,0.0683 -14.99941,2.25 -1.6829,4.00332 -10.29565,49.56653 -9.67515,51.18353 0.74727,1.94736 9.89532,2.20017 11.45195,0.31647 z m 6.93803,-24.38904 c -0.49946,-0.81276 1.70552,-15.42455 2.73303,-18.11096 0.61403,-1.60539 9.54842,-1.65931 13.01779,-0.0786 3.1884,1.45273 4.12671,4.87045 2.67104,9.72904 -1.75985,5.87388 -5.17886,8.4018 -12.03406,8.89766 -3.22229,0.23308 -6.0968,0.0363 -6.3878,-0.43718 z m -50.27235,10.71388 c 0.31448,-0.50885 1.69895,-6.47135 3.0766,-13.25 C 413.05631,163.47553 412.08638,165 419.59877,165 c 4.84651,0 6.60921,0.3784 7.0443,1.51223 0.31916,0.83172 -0.36997,6.61117 -1.53139,12.84321 C 422.02739,195.90533 421.77734,195 429.43261,195 c 7.55721,0 6.61689,1.71763 9.71096,-17.73836 l 2.26432,-14.23835 -2.04388,-2.76165 c -2.99569,-4.04771 -6.90809,-5.56079 -15.70209,-6.07262 l -7.83807,-0.45619 0.68957,-6.86641 L 417.20298,140 h -5.47904 c -3.18836,0 -5.89312,0.5226 -6.46944,1.25 -1.17323,1.48076 -11.24873,51.90845 -10.58946,53 0.65302,1.08118 11.10825,0.92583 11.78871,-0.17516 z"
         id="path12551"
         inkscape:connector-curvature="0" />
      <path
         style="fill:#7a83ad"
         d="m 396.33414,275.51928 c -28.09972,-5.09859 -52.30395,-21.27538 -67.78149,-45.30143 -27.877,-43.27396 -18.36012,-101.62792 21.81696,-133.773565 35.1132,-28.094026 83.18943,-29.836427 120.72544,-4.375389 19.18047,13.010294 34.29199,34.810164 40.55352,58.502484 2.27409,8.60468 2.62399,11.92881 2.62399,24.92862 0,12.91824 -0.35633,16.34701 -2.56747,24.70581 -2.96692,11.21584 -8.59998,23.78307 -14.75276,32.91302 -8.83762,13.11394 -25.45825,27.25021 -40.2643,34.24582 -18.03561,8.52152 -41.13269,11.64225 -60.35389,8.15463 z M 358.60971,202.8815 c 0.61034,-3.09017 1.4244,-6.12767 1.80902,-6.75 0.42635,-0.68985 3.89646,-1.14007 8.89029,-1.15346 9.45023,-0.0253 14.31705,-1.78594 19.56301,-7.07701 4.9829,-5.02577 7.081,-10.31394 7.10227,-17.90103 0.0221,-7.88114 -2.03609,-11.82213 -7.60624,-14.56433 -5.22808,-2.57379 -31.25669,-3.47971 -33.18601,-1.15503 -1.52959,1.84304 -11.52811,51.37515 -10.76958,53.35186 0.42833,1.11621 2.04819,1.39286 6.82458,1.16555 L 357.5,208.5 Z m 5.65215,-19.6985 c -1.5686,-0.99626 1.0289,-17.08133 2.97338,-18.41269 2.08773,-1.42944 10.97137,-0.008 13.0707,2.09119 1.53807,1.53806 1.77466,2.70198 1.21845,5.99415 -0.37963,2.24701 -1.57339,5.20822 -2.6528,6.58047 -2.76962,3.521 -11.45728,5.74908 -14.60973,3.74688 z m 87.78307,18.817 1.54493,-6.5 9.45507,-0.5 c 8.03892,-0.42511 10.17282,-0.9219 14.24723,-3.31686 5.91888,-3.47915 10.13966,-9.14624 11.72076,-15.73701 2.25852,-9.41453 -0.4342,-16.98589 -7.35122,-20.67012 -4.26071,-2.26939 -30.26981,-3.14578 -32.83529,-1.1064 -1.19839,0.95264 -3.10321,8.68794 -6.70858,27.24289 -2.76925,14.25188 -4.78943,26.30984 -4.4893,26.79546 0.30013,0.48562 3.31899,0.75 6.70858,0.5875 L 450.5,208.5 Z m 5.52042,-18.89426 c -0.90602,-1.46597 1.38025,-16.17468 2.7929,-17.96807 1.24404,-1.57935 11.10483,-0.82816 13.32589,1.01515 1.62404,1.34784 1.71753,7.87151 0.16173,11.2861 -0.63476,1.39317 -2.22994,3.23794 -3.54482,4.09948 -3.10886,2.037 -11.78549,3.10481 -12.7357,1.56734 z m -50.49226,10.776 c 0.39808,-0.64412 1.7374,-6.39351 2.97625,-12.77643 C 413.2972,164.37146 412.93411,165 419.3528,165 c 3.11418,0 5.84358,0.5317 6.44416,1.25535 0.73465,0.8852 0.30339,5.2015 -1.46257,14.63844 -2.05284,10.96989 -2.2637,13.53568 -1.16941,14.22934 2.10089,1.33172 11.4591,1.03475 12.65106,-0.40147 1.2592,-1.51725 5.18396,-23.74578 5.18396,-29.36025 0,-7.74566 -3.8276,-10.44435 -15.99649,-11.27851 L 416.5,153.5 l 0.4026,-4 c 0.95936,-9.53166 1.30341,-8.96639 -5.65914,-9.29789 -5.74597,-0.27358 -6.32585,-0.11036 -7.10576,2 -0.46707,1.26384 -3.00547,13.48033 -5.64089,27.14776 -4.01413,20.81752 -4.56491,25.00369 -3.39424,25.79782 1.81335,1.2301 11.0303,0.25536 11.97052,-1.26595 z"
         id="path12549"
         inkscape:connector-curvature="0" />
      <path
         style="fill:#6d77a5"
         d="m 401,275.92949 c -34.83,-4.37734 -66.60495,-28.40777 -79.94984,-60.46364 -6.31669,-15.17338 -7.43927,-21.22653 -7.41178,-39.96585 0.0207,-14.14421 0.37911,-18.28938 2.13329,-24.67543 9.82064,-35.75175 35.50781,-62.391029 69.70962,-72.293442 35.00279,-10.134322 71.73007,-1.001604 97.85877,24.333862 9.87506,9.57527 15.45701,17.32782 21.18954,29.42931 7.55437,15.94743 8.85378,22.28844 8.85378,43.2057 0,21.02084 -1.38364,27.74503 -8.93954,43.44419 -5.58022,11.59422 -11.15434,19.51691 -19.83452,28.19151 C 462.47831,269.25246 431.83671,279.80496 401,275.92949 Z m -44.21366,-67.11583 c 0.65248,-0.65248 1.70103,-3.80248 2.3301,-7 L 360.26021,196 h 5.2334 c 13.37954,0 21.359,-3.65342 27.37047,-12.53166 l 3.36407,-4.96834 -0.82658,4.5 c -0.45462,2.475 -0.84346,6.3 -0.86408,8.5 l -0.0375,4 5.5901,0.29513 c 3.67463,0.19401 5.95735,-0.14865 6.66189,-1 0.58948,-0.71232 2.29061,-7.37013 3.78029,-14.79513 1.48967,-7.425 3.21682,-13.83061 3.83811,-14.23469 1.36854,-0.89008 6.29735,-0.96104 9.37961,-0.13502 2.79402,0.74876 2.80061,1.64625 0.11668,15.9016 -1.17333,6.23198 -1.86245,12.03675 -1.53138,12.89949 0.46206,1.20411 2.12542,1.56862 7.15807,1.56862 7.89658,0 7.30719,1.0484 10.47712,-18.63668 2.20278,-13.67913 2.21856,-14.23469 0.48771,-17.16479 -2.48683,-4.20987 -5.69756,-5.5316 -14.9582,-6.15768 l -8,-0.54085 v -7 -7 l -5.5,-0.2593 c -3.025,-0.14261 -6.12446,0.14724 -6.88768,0.64411 -0.8237,0.53625 -2.53756,6.89385 -4.21697,15.64294 -1.55612,8.10674 -3.01495,14.92518 -3.24185,15.15209 -0.22691,0.2269 -0.71459,-1.60157 -1.08375,-4.06326 -0.83591,-5.57425 -3.71112,-9.32218 -8.99115,-11.72025 -3.35093,-1.52191 -6.6248,-1.85632 -18.35004,-1.87437 -13.85934,-0.0213 -14.2991,0.043 -15.22959,2.22804 C 352.82364,158.00999 344,203.22412 344,206.48675 c 0,1.29062 0.5625,2.57356 1.25,2.85097 2.47051,0.99687 10.37446,0.63782 11.53634,-0.52406 z M 364.09643,179.75 c 0.053,-1.7875 0.61553,-5.725 1.25,-8.75 l 1.15357,-5.5 5.22003,-0.30122 C 378.91861,164.78339 381,166.08187 381,170.98813 381,179.07717 376.93397,183 368.54966,183 c -4.48606,0 -4.54831,-0.0454 -4.45323,-3.25 z m 86.23473,28.77598 c 0.81071,-0.81071 1.78501,-3.7352 2.16511,-6.49888 0.38011,-2.76368 1.08204,-5.26648 1.55986,-5.56179 0.47782,-0.29531 4.37316,-0.69175 8.65632,-0.88097 8.95499,-0.39562 14.37092,-2.3418 19.16001,-6.88502 7.74515,-7.34752 10.5942,-20.77928 5.87754,-27.70949 -4.72394,-6.94091 -6.26254,-7.45935 -23.07082,-7.77383 -8.34855,-0.1562 -15.69507,0.0688 -16.3256,0.5 -1.02729,0.70252 -11.36316,49.35923 -11.35636,53.46068 0.003,1.92086 1.76888,2.54318 7.68135,2.70732 2.48633,0.069 4.77552,-0.48095 5.65259,-1.35802 z M 457.00137,182.75 c 7.5e-4,-0.1375 0.67513,-4.075 1.49863,-8.75 0.8235,-4.675 1.49788,-8.6125 1.49863,-8.75 7.5e-4,-0.1375 2.66923,-0.25 5.92994,-0.25 7.72024,0 9.49019,1.59239 8.77939,7.89863 C 473.95299,179.59669 469.83462,183 462.48422,183 c -3.01632,0 -5.4836,-0.1125 -5.48285,-0.25 z"
         id="path12547"
         inkscape:connector-curvature="0" />
      <path
         style="fill:#596498"
         d="M 393,274.11682 C 376.20804,270.42035 360.49999,262.56209 347.21392,251.21144 333.7033,239.66896 321.32305,219.31876 316.36309,200.5 c -2.28594,-8.67318 -2.63565,-11.99023 -2.63565,-25 0,-12.88544 0.35883,-16.35598 2.54542,-24.61889 10.48894,-39.63668 42.04361,-68.473033 81.96618,-74.905106 10.4534,-1.684186 29.98382,-0.77028 39.93639,1.868783 C 495.08052,92.933965 527.45724,152.47779 508.67494,207.5 497.7168,239.60157 473.3641,262.8398 440.5,272.55502 c -12.33937,3.64774 -34.68637,4.38251 -47.5,1.5618 z m -35.38151,-65.30854 c 0.40509,-0.65545 1.23589,-3.69295 1.84623,-6.75 l 1.1097,-5.55828 8.96279,-0.53915 c 11.92456,-0.71732 16.94562,-3.19107 23.26247,-11.46085 l 2.29154,-3 -0.72622,4.5 c -1.55514,9.63625 -1.65303,9.46286 5.53343,9.80157 3.51914,0.16586 6.81902,-0.11902 7.33308,-0.63308 0.51405,-0.51405 2.18811,-7.17476 3.72013,-14.80157 l 2.78548,-13.86692 5.27423,-0.30721 c 2.90082,-0.16897 5.66318,0.0817 6.13856,0.55712 0.48577,0.48577 -0.21757,6.71047 -1.6059,14.21239 -1.35863,7.34144 -2.23527,13.72823 -1.9481,14.19288 0.28717,0.46465 3.86199,0.84482 7.94405,0.84482 8.58948,0 7.36767,1.94239 10.44879,-16.61109 2.69001,-16.19837 2.62376,-17.93025 -0.81755,-21.37156 -3.40498,-3.40498 -8.66465,-5.00427 -16.48247,-5.01177 l -5.81128,-0.006 0.73565,-4.75 c 1.40681,-9.08366 1.62891,-8.71488 -5.45041,-9.04998 -3.561,-0.16857 -6.91189,0.17687 -7.64888,0.78852 -0.72136,0.59867 -2.28592,6.35866 -3.47681,12.79998 -2.94544,15.93142 -3.15334,16.53232 -4.26627,12.3311 -1.33453,-5.03774 -3.63788,-8.0112 -7.88365,-10.17723 C 385.60203,153.26648 382.95299,153 369.57838,153 h -15.50129 l -0.98474,3.75 c -2.29975,8.75772 -10.10438,50.77626 -9.65084,51.95817 0.65311,1.70199 13.1325,1.79012 14.17698,0.10011 z M 364,181.54922 c 0,-1.26529 1.01562,-6.92666 2.5652,-14.29922 0.41024,-1.95185 1.10345,-2.25 5.23135,-2.25 8.44312,0 10.98527,3.79974 7.73944,11.56811 -0.99508,2.38156 -2.58632,3.9728 -4.96788,4.96788 C 369.93017,183.47384 364,183.48127 364,181.54922 Z M 451.87928,206.25 c 0.52601,-2.0625 1.25411,-5.2125 1.618,-7 l 0.66163,-3.25 7.17055,-0.006 c 3.94379,-0.003 8.84667,-0.47108 10.89528,-1.04003 17.09285,-4.7471 24.36204,-29.71636 11.45576,-39.34986 -2.54195,-1.89736 -4.40044,-2.13609 -18.87941,-2.42512 -10.20122,-0.20364 -16.4388,0.0583 -17.09855,0.71805 -1.77931,1.77931 -11.64926,53.42843 -10.48211,54.85254 0.62353,0.7608 3.5053,1.25 7.36347,1.25 h 6.33901 l 0.95637,-3.75 z m 6.21715,-26.5 c 0.053,-1.7875 0.61553,-5.725 1.25,-8.75 l 1.15357,-5.5 5.85254,0.03 c 6.90968,0.0354 9.13072,1.95171 8.05584,6.95055 C 472.79801,179.96979 469.03667,183 461.35078,183 c -3.13348,0 -3.34453,-0.21076 -3.25435,-3.25 z"
         id="path12545"
         inkscape:connector-curvature="0" />
      <path
         style="fill:#4d5991"
         d="m 403.27768,274.93199 c -25.32378,-2.45001 -50.68609,-16.19954 -66.81324,-36.2211 -8.20743,-10.18936 -16.60873,-26.94958 -19.65503,-39.21089 -3.19896,-12.87578 -3.19727,-35.16308 0.004,-47.93995 2.67079,-10.66081 9.42006,-25.32999 15.70961,-34.14401 14.22899,-19.940146 36.82774,-34.754459 60.46731,-39.638557 12.83727,-2.652268 35.74654,-2.087272 47.01003,1.159377 43.54296,12.551057 73.04267,51.72548 72.98686,96.92361 -0.0637,51.5902 -38.42701,93.80055 -90.06797,99.09991 -5.57194,0.57179 -10.42062,0.9783 -10.77484,0.90336 -0.35423,-0.075 -4.34409,-0.49424 -8.86637,-0.93175 z m -45.49134,-65.11833 c 0.65248,-0.65248 1.69042,-3.74857 2.30653,-6.88019 l 1.1202,-5.69385 8.14346,-0.44339 c 9.66067,-0.526 16.36456,-3.16043 21.26518,-8.3566 l 3.35098,-3.55308 -0.57288,3.30673 c -0.31508,1.81869 -0.74482,3.86922 -0.95496,4.55672 -1.00338,3.28261 0.71283,4.25 7.53969,4.25 4.20186,0 7.16035,-0.47424 7.79794,-1.25 0.56505,-0.6875 2.25916,-7.4375 3.76469,-15 L 414.2845,167 h 5.35775 c 3.62405,0 5.35775,0.40512 5.35775,1.25198 0,0.68859 -0.9,5.9752 -2,11.74802 -1.1,5.77282 -2,11.99249 -2,13.82149 v 3.32546 l 8.51372,-0.32348 c 6.45939,-0.24542 8.39847,-0.0248 8.03606,0.91435 -0.26271,0.6808 -0.78301,3.53962 -1.15621,6.35292 -0.82589,6.22588 -0.0955,6.8727 7.785,6.89395 7.04265,0.019 8.36612,-1.18497 9.27191,-8.43464 L 454.14391,197 h 5.87883 c 13.37873,0 21.63835,-4.04768 27.45583,-13.4549 2.72315,-4.40351 3.02143,-5.70057 3.02143,-13.13862 0,-9.71994 -1.50906,-12.57251 -8.55854,-16.17822 -4.13804,-2.11655 -5.50036,-2.25318 -19.94146,-2 l -15.5,0.27174 -1.56845,7.5 -1.56845,7.5 -0.67878,-4.15878 C 441.52902,156.26292 433.74737,152 421.98175,152 h -3.9198 l 0.21902,-6.75 0.21903,-6.75 -6.5,-0.25788 c -3.575,-0.14183 -7.05689,0.10626 -7.73754,0.55132 C 403.32658,139.40538 398,161.56748 398,164.84941 c 0,0.3159 -1.0125,-1.43348 -2.25,-3.88752 -1.64369,-3.25955 -3.45234,-5.0682 -6.71189,-6.71189 -4.04755,-2.04106 -5.88358,-2.25 -19.77144,-2.25 -14.9284,0 -15.3332,0.056 -16.2596,2.25 -0.52253,1.2375 -3.20762,13.95 -5.96686,28.25 -4.64043,24.04946 -4.89081,26.09378 -3.33738,27.25 2.13345,1.58793 12.51232,1.63485 14.08351,0.0637 z M 365,181.06986 c 0,-0.65153 0.51595,-4.30879 1.14655,-8.12723 L 367.2931,166 h 5.23101 c 3.44456,0 5.65885,0.51553 6.48383,1.50957 1.75076,2.10953 0.62077,9.30617 -1.84902,11.77595 C 374.83382,181.61063 365,183.05375 365,181.06986 Z M 458.37686,180.25 C 458.82436,178.71936 461,167.16276 461,166.31634 c 0,-0.80657 9.35045,-0.19915 11.06574,0.71884 3.67305,1.96576 1.56515,11.07009 -3.1245,13.4952 -1.56305,0.80829 -4.69459,1.46962 -6.95897,1.46962 -3.44924,0 -4.03406,-0.28386 -3.60541,-1.75 z m -16.29791,-9.83333 c 0.048,-1.16495 0.28494,-1.4019 0.60416,-0.60417 0.28887,0.72187 0.25335,1.58437 -0.0789,1.91667 -0.3323,0.33229 -0.56864,-0.25834 -0.52522,-1.3125 z"
         id="path12543"
         inkscape:connector-curvature="0" />
    </g>
  </g>
</svg>
