<?xml version="1.0" encoding="UTF-8" standalone="no"?>
<!-- Created with Inkscape (http://www.inkscape.org/) -->

<svg
   xmlns:dc="http://purl.org/dc/elements/1.1/"
   xmlns:cc="http://creativecommons.org/ns#"
   xmlns:rdf="http://www.w3.org/1999/02/22-rdf-syntax-ns#"
   xmlns:svg="http://www.w3.org/2000/svg"
   xmlns="http://www.w3.org/2000/svg"
   xmlns:sodipodi="http://sodipodi.sourceforge.net/DTD/sodipodi-0.dtd"
   xmlns:inkscape="http://www.inkscape.org/namespaces/inkscape"
   width="256px"
   height="256px"
   viewBox="0 0 256 256"
   version="1.1"
   id="SVGRoot"
   inkscape:version="0.92.3 (2405546, 2018-03-11)"
   sodipodi:docname="icon_java.svg">
  <sodipodi:namedview
     id="base"
     pagecolor="#ffffff"
     bordercolor="#666666"
     borderopacity="1.0"
     inkscape:pageopacity="0.0"
     inkscape:pageshadow="2"
     inkscape:zoom="1"
     inkscape:cx="246.44927"
     inkscape:cy="115.46814"
     inkscape:document-units="px"
     inkscape:current-layer="layer1"
     showgrid="false"
     inkscape:window-width="1024"
     inkscape:window-height="705"
     inkscape:window-x="-4"
     inkscape:window-y="-4"
     inkscape:window-maximized="1"
     inkscape:grid-bbox="true">
    <sodipodi:guide
       position="0,0"
       orientation="0,256"
       id="guide2135"
       inkscape:locked="false" />
    <sodipodi:guide
       position="256,0"
       orientation="-256,0"
       id="guide2137"
       inkscape:locked="false" />
    <sodipodi:guide
       position="256,256"
       orientation="0,-256"
       id="guide2139"
       inkscape:locked="false" />
    <sodipodi:guide
       position="0,256"
       orientation="256,0"
       id="guide2141"
       inkscape:locked="false" />
  </sodipodi:namedview>
  <defs
     id="defs881">
    <linearGradient
       id="linearGradient4689">
      <stop
         style="stop-color:#5a9fd4;stop-opacity:1;"
         offset="0"
         id="stop4691" />
      <stop
         style="stop-color:#306998;stop-opacity:1;"
         offset="1"
         id="stop4693" />
    </linearGradient>
    <linearGradient
       id="linearGradient4671">
      <stop
         style="stop-color:#ffd43b;stop-opacity:1;"
         offset="0"
         id="stop4673" />
      <stop
         style="stop-color:#ffe873;stop-opacity:1"
         offset="1"
         id="stop4675" />
    </linearGradient>
  </defs>
  <metadata
     id="metadata884">
    <rdf:RDF>
      <cc:Work
         rdf:about="">
        <dc:format>image/svg+xml</dc:format>
        <dc:type
           rdf:resource="http://purl.org/dc/dcmitype/StillImage" />
        <dc:title></dc:title>
      </cc:Work>
    </rdf:RDF>
  </metadata>
  <g
     id="layer1"
     inkscape:groupmode="layer"
     inkscape:label="Camada 1">
    <rect
       style="fill:#ffffff;fill-opacity:1;stroke:none;stroke-width:2.66499996;stroke-linecap:butt;stroke-linejoin:miter;stroke-miterlimit:0;stroke-dasharray:none;stroke-opacity:1;paint-order:markers stroke fill"
       id="rect2143"
       width="256"
       height="256"
       x="0"
       y="0"
       ry="31" />
    <g
       id="g11637"
       transform="translate(-365,-17.43092)"
       style="fill:#d40000">
      <path
         style="fill:#d40000;fill-opacity:1"
         d="m 435.94266,251.43092 c -1.10273,-1.32872 -0.90613,-1.90318 1.28336,-3.75 4.97465,-4.19609 5.25205,-5.67719 5.60583,-29.93092 L 443.16369,195 H 446.08185 449 l -0.006,22.25 c -0.003,12.2375 -0.46874,23.91766 -1.03483,25.9559 -0.62638,2.25535 -2.47477,4.89743 -4.72227,6.75 -4.18694,3.45124 -5.44365,3.70535 -7.29466,1.47502 z m 23.41589,-10.82975 c -6.60342,-2.97088 -6.30833,-13.5073 0.47655,-17.01589 1.64595,-0.85116 5.5064,-1.84301 8.57877,-2.2041 5.48392,-0.64453 5.58613,-0.71523 5.58613,-3.86387 0,-5.76723 -5.39758,-7.98445 -13.66509,-5.61336 -2.7085,0.77679 -3.22394,0.62839 -3.66413,-1.05489 -0.70582,-2.69907 3.104,-4.09591 11.55589,-4.23687 6.09082,-0.10159 6.98882,0.14964 9.5,2.65773 2.74972,2.74635 2.77607,2.89744 3.09538,17.75 L 481.14409,242 h -2.57205 C 476.66667,242 476,241.48161 476,240 c 0,-2.38516 -0.3836,-2.44945 -3.28518,-0.55054 -3.39401,2.22116 -9.75921,2.77003 -13.35627,1.15171 z m 13.23068,-5.67522 C 473.4599,234.20335 474,231.83799 474,228.7475 v -5.0076 l -4.54058,0.51178 C 464.14359,224.85086 461,227.29402 461,230.82625 c 0,4.00584 2.87655,6.45547 6.82762,5.8143 1.84296,-0.29907 3.98569,-1.07064 4.76161,-1.7146 z M 491.59089,225.75 c -2.67797,-8.9375 -5.07961,-16.8125 -5.33696,-17.5 -0.31961,-0.85383 0.66261,-1.25 3.09911,-1.25 h 3.56701 l 3.63826,11.75 c 5.38378,17.38732 4.86099,16.76534 7.35467,8.75 1.19779,-3.85 2.69897,-10.0375 3.33596,-13.75 L 508.4071,207 h 3.40774 c 3.38962,0 3.4042,0.0199 2.74143,3.75 -0.81209,4.57049 -5.05823,18.84118 -7.73611,26 -1.94058,5.18778 -2.01361,5.25 -6.16204,5.25 h -4.19818 z m 32.76611,15.25842 c -5.54939,-2.23946 -7.02838,-9.86865 -2.87096,-14.80947 C 524.04026,223.16344 530.05616,221 535.94282,221 538.74309,221 539,220.7189 539,217.65499 c 0,-1.9706 -0.7514,-4.02502 -1.82874,-5 -2.03091,-1.83795 -8.58018,-2.21042 -12.52108,-0.71209 -1.91836,0.72936 -2.61326,0.59569 -3.06835,-0.59024 -0.92622,-2.4137 0.0656,-3.13767 5.98075,-4.36565 7.07736,-1.46926 12.57787,-0.53004 15.57837,2.66001 2.2258,2.36641 2.37724,3.35093 2.6811,17.43053 L 546.14409,242 h -2.50466 c -1.59646,0 -2.72686,-0.7001 -3.11746,-1.93077 -0.60421,-1.90369 -0.67178,-1.904 -4.81739,-0.022 -4.51639,2.05037 -7.93167,2.33965 -11.34758,0.96116 z m 11.73871,-5.72403 C 538.65768,233.771 539,233.00487 539,228.78439 V 224 h -3.54966 c -1.95231,0 -4.87731,0.68656 -6.5,1.52568 -2.39021,1.23603 -2.95034,2.17172 -2.95034,4.92857 0,6.09022 4.39939,8.19504 10.09571,4.83014 z m -65.94725,-52.30324 c -3.49334,-0.4852 -6.7574,-1.01694 -7.25345,-1.18166 -0.49605,-0.16472 8.84353,-0.14118 20.75464,0.0523 28.72438,0.4666 49.69308,-2.44561 61.85035,-8.59002 l 3,-1.51623 -2.39217,2.59301 c -2.53126,2.74378 -10.66235,5.79227 -20.60783,7.72622 -7.48218,1.45496 -46.78859,2.10569 -55.35154,0.91638 z M 468,176.41427 c -1.925,-0.22283 -7.775,-0.88748 -13,-1.477 -13.14276,-1.48284 -17,-2.58574 -17,-4.8608 0,-3.12887 8.18502,-7.05505 17.5,-8.39438 l 4,-0.57512 -4.13479,1.34967 C 449.48462,164.37618 447,165.86156 447,167.45763 c 0,3.46556 15.76998,5.6614 40.5,5.63929 29.14907,-0.0261 46.16782,-2.26364 51.52919,-6.77494 1.63395,-1.37487 2.97081,-2.04191 2.97081,-1.4823 0,3.38375 -8.95641,7.12817 -23,9.61564 -9.08655,1.60946 -42.82435,2.90535 -51,1.95895 z m 6.5,-16.00415 c -2.75,-0.85987 -5.9,-2.45633 -7,-3.54768 -1.99956,-1.98384 -1.99948,-1.9847 0.36078,-3.92336 2.50344,-2.05625 4.67549,-2.6158 3.63806,-0.93721 -1.80619,2.92248 16.23323,4.85227 28.53872,3.05297 7.42979,-1.08638 8.69661,-1.02752 12.23601,0.56852 l 3.94816,1.78037 -5.36087,1.93004 c -7.42598,2.67352 -29.19228,3.31785 -36.36086,1.07635 z m 1.7921,-15.47478 c -12.56591,-1.5225 -17.23277,-4.76221 -12.06959,-8.37864 2.79466,-1.95746 3.87784,-1.98178 3.14445,-0.0706 -0.80127,2.08807 2.55286,3.10894 12.63304,3.84503 7.43855,0.54318 21.26838,-0.29883 30.5,-1.85696 2.02616,-0.34198 3.77946,0.10537 5.40117,1.37807 l 2.40117,1.88442 -8.90117,1.56325 c -11.8817,2.08669 -24.31557,2.70087 -33.10907,1.63543 z m 54.68426,-3.6576 c 8.76408,-6.29159 12.65265,-12.1374 11.51602,-17.31243 -0.85552,-3.89516 -4.90763,-6.94399 -9.37724,-7.0555 l -3.61514,-0.0902 3.26883,-0.94328 c 2.13394,-0.61579 4.63243,-0.57611 7.19639,0.11429 8.27151,2.22729 10.69857,10.90589 4.89763,17.5128 -3.30822,3.76785 -9.66921,7.86102 -13.86285,8.92047 l -2.5,0.63158 z M 469,128.91742 c -11.27426,-0.57115 -19,-2.1862 -19,-3.97192 0,-2.11002 9.4718,-6.11445 17.52981,-7.41114 3.79666,-0.61096 3.72979,-0.53787 -1.52981,1.67222 -5.89838,2.47851 -7.06303,4.76847 -3,5.89865 6.28951,1.74951 36.92132,0.84785 55.5,-1.63365 l 4,-0.53427 -2.67999,1.5266 c -6.03886,3.43992 -29.77246,5.51976 -50.82001,4.45351 z m 32.29172,-10.92353 c 2.45377,-3.50323 2.12598,-8.04717 -0.86923,-12.04961 -7.03439,-9.399929 -8.29341,-16.908232 -3.91669,-23.357687 3.59793,-5.301852 7.05271,-8.057036 14.9942,-11.957889 10.03064,-4.92704 13.0427,-5.509443 6.81329,-1.317396 C 500.74658,81.132713 498.51153,86.249395 506,97.5 c 2.34073,3.51669 3.99495,7.1928 3.99682,8.88197 0.004,3.67151 -3.24291,8.94501 -7.2756,11.81654 l -3.13777,2.23429 z M 484.3951,107.35247 c -9.90517,-10.353748 -12.66644,-18.059502 -9.00714,-25.13581 1.5344,-2.967203 6.96563,-8.090787 20.6102,-19.442774 8.77529,-7.30085 12.18628,-12.990918 12.93185,-21.572354 L 509.51224,34.5 l 1.34761,4.656304 c 2.88349,9.963149 -1.29342,18.50103 -15.40299,31.484754 -17.41044,16.021202 -18.40592,21.167414 -7.27507,37.608942 2.141,3.1625 3.59575,5.75 3.23278,5.75 -0.36297,0 -3.52174,-2.99139 -7.01947,-6.64753 z"
         id="path11641"
         inkscape:connector-curvature="0" />
      <path
         style="fill:#d40000;fill-opacity:1"
         d="m 443,249.62244 c 0,-0.20765 0.7875,-0.99515 1.75,-1.75 1.58606,-1.24387 1.62143,-1.2085 0.37756,0.37756 C 443.82119,249.91575 443,250.44548 443,249.62244 Z M 438.5,247 c 0.99549,-1.1 2.03498,-2 2.30997,-2 0.275,0 -0.31448,0.9 -1.30997,2 -0.99549,1.1 -2.03498,2 -2.30998,2 -0.27499,0 0.31449,-0.9 1.30998,-2 z m 106.89456,-18.5 c 0.002,-7.7 0.15853,-10.71781 0.34883,-6.70625 0.1903,4.01156 0.18902,10.31156 -0.003,14 C 545.5487,239.48219 545.393,236.2 545.39456,228.5 Z m -24.52212,9.75 c -1.24387,-1.58606 -1.2085,-1.62143 0.37756,-0.37756 0.9625,0.75485 1.75,1.54235 1.75,1.75 0,0.82304 -0.82119,0.29331 -2.12756,-1.37244 z m -55.05994,-0.93311 c 0.72187,-0.28887 1.58438,-0.25335 1.91667,0.0789 0.33229,0.33229 -0.25834,0.56864 -1.3125,0.52522 -1.16495,-0.048 -1.4019,-0.28494 -0.60417,-0.60416 z M 448,216.56642 v -20.43358 l -2.75,-0.41659 c -2.55956,-0.38774 -2.52493,-0.42696 0.5,-0.56642 L 449,195 v 21 c 0,11.55 -0.225,21 -0.5,21 -0.275,0 -0.5,-9.19511 -0.5,-20.43358 z m 24.75,18.43535 c 0.6875,-0.77097 1.25,-3.53188 1.25,-6.13535 0,-4.27241 -0.24477,-4.77627 -2.51237,-5.17181 -2.30098,-0.40136 -2.27995,-0.42799 0.25,-0.31642 2.59699,0.11452 2.78013,0.42647 3.05904,5.21063 0.23083,3.9595 -0.10205,5.39129 -1.5,6.45177 -1.53491,1.16438 -1.61455,1.15872 -0.54667,-0.0388 z M 460.15789,231 c 0,-1.375 0.22698,-1.9375 0.50439,-1.25 0.27741,0.6875 0.27741,1.8125 0,2.5 -0.27741,0.6875 -0.50439,0.125 -0.50439,-1.25 z m 79.01021,-2.18664 c -0.16126,-4.49581 -0.30044,-4.70307 -3.4181,-5.08996 l -3.25,-0.40333 3.28138,-0.16003 c 3.8066,-0.18565 4.52167,0.9873 3.95336,6.4848 -0.38373,3.71194 -0.40478,3.68105 -0.56664,-0.83148 z M 520,228.32165 c 0,-0.55642 1.0125,-1.86892 2.25,-2.91666 L 524.5,223.5 522.51066,226 c -1.09414,1.375 -2.10664,2.6875 -2.25,2.91667 C 520.1173,229.14583 520,228.87808 520,228.32165 Z m -48.30883,-7.0359 c 1.47077,-0.27335 2.32336,-1.2914 2.59323,-3.0965 0.36226,-2.42309 0.39283,-2.39233 0.30883,0.31075 -0.0771,2.48092 -0.5258,3.0167 -2.59323,3.0965 -2.05322,0.0793 -2.10841,0.0237 -0.30883,-0.31075 z m 65,0 c 1.47077,-0.27335 2.32336,-1.2914 2.59323,-3.0965 0.36226,-2.42309 0.39283,-2.39233 0.30883,0.31075 -0.0771,2.48092 -0.5258,3.0167 -2.59323,3.0965 -2.05322,0.0793 -2.10841,0.0237 -0.30883,-0.31075 z m -30.61222,-1.86908 c 0.048,-1.16495 0.28494,-1.4019 0.60416,-0.60417 0.28887,0.72187 0.25335,1.58437 -0.0789,1.91667 -0.33229,0.33229 -0.56864,-0.25834 -0.52522,-1.3125 z m 1,-4 c 0.048,-1.16495 0.28494,-1.4019 0.60416,-0.60417 0.28887,0.72187 0.25335,1.58437 -0.0789,1.91667 -0.3323,0.33229 -0.56864,-0.25834 -0.52522,-1.3125 z m -42.31729,-5.12393 c 1.24391,-0.23919 3.04391,-0.23011 4,0.0202 0.95609,0.25029 -0.0617,0.446 -2.26166,0.4349 -2.2,-0.0111 -2.98225,-0.21589 -1.73834,-0.45508 z M 476.87244,209.25 c -1.24387,-1.58606 -1.2085,-1.62143 0.37756,-0.37756 0.9625,0.75485 1.75,1.54235 1.75,1.75 0,0.82304 -0.82119,0.29331 -2.12756,-1.37244 z m 52.88922,1.04274 c 1.24391,-0.23919 3.04391,-0.23011 4,0.0202 0.95609,0.25029 -0.0617,0.446 -2.26166,0.4349 -2.2,-0.0111 -2.98225,-0.21589 -1.73834,-0.45508 z M 541.87244,209.25 c -1.24387,-1.58606 -1.2085,-1.62143 0.37756,-0.37756 0.9625,0.75485 1.75,1.54235 1.75,1.75 0,0.82304 -0.82119,0.29331 -2.12756,-1.37244 z M 514,209.06642 c 0,-0.51347 -1.2375,-1.12104 -2.75,-1.35017 -2.55956,-0.38774 -2.52493,-0.42696 0.5,-0.56642 2.28881,-0.10552 3.25,0.29379 3.25,1.35017 0,0.825 -0.225,1.5 -0.5,1.5 -0.275,0 -0.5,-0.42011 -0.5,-0.93358 z m -26.23834,-1.77368 c 1.24391,-0.23919 3.04391,-0.23011 4,0.0202 0.95609,0.25029 -0.0617,0.446 -2.26166,0.4349 -2.2,-0.0111 -2.98225,-0.21589 -1.73834,-0.45508 z m -5.67833,-23.65773 c 0.98536,-0.86313 23.89284,-1.40548 23.36611,-0.5532 -0.31211,0.50501 -5.79092,0.91819 -12.17512,0.91819 -6.38421,0 -11.42015,-0.16424 -11.19099,-0.36499 z m -11.81958,-1.35259 c 1.52006,-0.22986 3.77006,-0.22371 5,0.0136 1.22994,0.23736 -0.0138,0.42542 -2.76375,0.41792 -2.75,-0.008 -3.75631,-0.20172 -2.23625,-0.43157 z M 513.5,182 l -2,-0.85943 2,0.0294 c 1.1,0.0162 3.125,0.38968 4.5,0.83003 l 2.5,0.80064 -2.5,0.0294 c -1.375,0.0162 -3.4,-0.35734 -4.5,-0.83003 z m 6.25,-1.66228 c 0.6875,-0.27741 1.8125,-0.27741 2.5,0 0.6875,0.27741 0.125,0.50439 -1.25,0.50439 -1.375,0 -1.9375,-0.22698 -1.25,-0.50439 z M 536,178 c -0.825,-0.53316 -1.05,-0.96937 -0.5,-0.96937 0.55,0 1.675,0.43621 2.5,0.96937 0.825,0.53316 1.05,0.96937 0.5,0.96937 -0.55,0 -1.675,-0.43621 -2.5,-0.96937 z m 3,-1 c -0.90129,-0.58246 -1.02463,-0.97549 -0.30902,-0.98469 0.65504,-0.008 1.4691,0.43469 1.80902,0.98469 0.7673,1.24153 0.42112,1.24153 -1.5,0 z m -76.75,-1.68933 c 0.9625,-0.25152 2.5375,-0.25152 3.5,0 0.9625,0.25153 0.175,0.45733 -1.75,0.45733 -1.925,0 -2.7125,-0.2058 -1.75,-0.45733 z m 43,0 c 0.9625,-0.25152 2.5375,-0.25152 3.5,0 0.9625,0.25153 0.175,0.45733 -1.75,0.45733 -1.925,0 -2.7125,-0.2058 -1.75,-0.45733 z m 38.75,-0.0701 c 0,-0.4177 1.0125,-1.38145 2.25,-2.14166 2.24201,-1.37729 2.24323,-1.37459 0.34501,0.75946 -2.03808,2.29128 -2.59501,2.58792 -2.59501,1.3822 z m -90.1875,-0.92366 c 0.72187,-0.28887 1.58438,-0.25335 1.91667,0.0789 0.33229,0.33229 -0.25834,0.56864 -1.3125,0.52522 -1.16495,-0.048 -1.4019,-0.28494 -0.60417,-0.60416 z m 61,0 c 0.72187,-0.28887 1.58437,-0.25335 1.91667,0.0789 0.33229,0.33229 -0.25834,0.56864 -1.3125,0.52522 -1.16495,-0.048 -1.4019,-0.28494 -0.60417,-0.60416 z m -45.54875,-1.03447 c 1.52006,-0.22986 3.77006,-0.22371 5,0.0136 1.22994,0.23736 -0.0138,0.42542 -2.76375,0.41792 -2.75,-0.008 -3.75631,-0.20172 -2.23625,-0.43157 z m 30.98625,0.001 c 1.5125,-0.22913 3.9875,-0.22913 5.5,0 1.5125,0.22912 0.275,0.41659 -2.75,0.41659 -3.025,0 -4.2625,-0.18747 -2.75,-0.41659 z m 16.5625,-0.96686 c 0.72187,-0.28887 1.58437,-0.25335 1.91667,0.0789 0.33229,0.33229 -0.25834,0.56864 -1.3125,0.52522 -1.16495,-0.048 -1.4019,-0.28494 -0.60417,-0.60416 z M 524.5,172 c -0.33992,-0.55 -0.16803,-1 0.38197,-1 0.55,0 1.27811,0.45 1.61803,1 0.33992,0.55 0.16803,1 -0.38197,1 -0.55,0 -1.27811,-0.45 -1.61803,-1 z m 4.5,-0.93261 c 0,-0.58707 0.5625,-1.07353 1.25,-1.08104 0.6875,-0.008 2.375,-0.26348 3.75,-0.56881 1.82303,-0.40482 2.09382,-0.29848 1,0.39269 -2.66564,1.6844 -6,2.38304 -6,1.25716 z m 8.08333,-2.32805 c 0.22917,-0.14336 1.54167,-1.15586 2.91667,-2.25 l 2.5,-1.98934 -1.90499,2.25 c -1.04774,1.2375 -2.36024,2.25 -2.91666,2.25 -0.55643,0 -0.82418,-0.1173 -0.59502,-0.26066 z m -89.43219,-4.27261 c 0.5524,-1.43954 6.09641,-3.05251 7.08703,-2.06189 0.32734,0.32734 -0.0423,0.59793 -0.8215,0.60132 -0.77917,0.003 -2.62375,0.63592 -4.09907,1.40563 -2.19936,1.14745 -2.58949,1.15734 -2.16646,0.0549 z M 481.75,161.33772 c 0.6875,-0.27741 1.8125,-0.27741 2.5,0 0.6875,0.27741 0.125,0.50439 -1.25,0.50439 -1.375,0 -1.9375,-0.22698 -1.25,-0.50439 z m 14,0 c 0.6875,-0.27741 1.8125,-0.27741 2.5,0 0.6875,0.27741 0.125,0.50439 -1.25,0.50439 -1.375,0 -1.9375,-0.22698 -1.25,-0.50439 z m 8.0625,-1.02083 c 0.72187,-0.28887 1.58437,-0.25335 1.91667,0.0789 0.33229,0.33229 -0.25834,0.56864 -1.3125,0.52522 -1.16495,-0.048 -1.4019,-0.28494 -0.60417,-0.60416 z m -36.84767,-3.85927 c -1.04128,-1.25466 -1.03675,-1.76766 0.0243,-2.75 1.02652,-0.95042 1.14824,-0.93206 0.57152,0.0862 -0.40303,0.7116 -0.18895,1.9491 0.47575,2.75 0.66469,0.80091 0.98353,1.4562 0.70853,1.4562 -0.275,0 -1.07603,-0.69407 -1.78006,-1.54238 z m 21.84767,-0.14073 c 0.72187,-0.28887 1.58437,-0.25335 1.91667,0.0789 0.33229,0.3323 -0.25834,0.56864 -1.3125,0.52522 -1.16495,-0.048 -1.4019,-0.28494 -0.60417,-0.60416 z M 476.75,155.33772 c 0.6875,-0.27741 1.8125,-0.27741 2.5,0 0.6875,0.27741 0.125,0.50439 -1.25,0.50439 -1.375,0 -1.9375,-0.22698 -1.25,-0.50439 z m 22,0 c 0.6875,-0.27741 1.8125,-0.27741 2.5,0 0.6875,0.27741 0.125,0.50439 -1.25,0.50439 -1.375,0 -1.9375,-0.22698 -1.25,-0.50439 z m -22.9375,-11.02083 c 0.72187,-0.28887 1.58438,-0.25335 1.91667,0.0789 0.33229,0.3323 -0.25834,0.56864 -1.3125,0.52522 -1.16495,-0.048 -1.4019,-0.28494 -0.60417,-0.60416 z m 22,0 c 0.72187,-0.28887 1.58437,-0.25335 1.91667,0.0789 0.33229,0.3323 -0.25834,0.56864 -1.3125,0.52522 -1.16495,-0.048 -1.4019,-0.28494 -0.60417,-0.60416 z m 32.7448,-2.73513 c 1.06675,-0.78003 2.15223,-1.20556 2.41217,-0.94563 0.55036,0.55036 -2.02834,2.32607 -3.4106,2.34856 -0.51762,0.008 -0.0683,-0.6229 0.99843,-1.40293 z M 515.5,141 c 0.33992,-0.55 0.81648,-1 1.05902,-1 0.24254,0 0.44098,0.45 0.44098,1 0,0.55 -0.47656,1 -1.05902,1 -0.58246,0 -0.7809,-0.45 -0.44098,-1 z m -40.73834,-0.70726 c 1.24391,-0.23919 3.04391,-0.23011 4,0.0202 0.95609,0.25029 -0.0617,0.446 -2.26166,0.4349 -2.2,-0.0111 -2.98225,-0.21589 -1.73834,-0.45508 z m 21.48834,0.0179 c 0.9625,-0.25152 2.5375,-0.25152 3.5,0 0.9625,0.25153 0.175,0.45733 -1.75,0.45733 -1.925,0 -2.7125,-0.2058 -1.75,-0.45733 z M 462,139.28911 c 0,-0.57432 0.7875,-1.66182 1.75,-2.41667 1.61875,-1.26951 1.63998,-1.22245 0.28297,0.62756 -0.80687,1.1 -1.59437,2.1875 -1.75,2.41667 C 462.12734,140.14583 462,139.86343 462,139.28911 Z M 513,139 c -0.90129,-0.58246 -1.02463,-0.97549 -0.30902,-0.98469 0.65504,-0.008 1.4691,0.43469 1.80902,0.98469 0.7673,1.24153 0.42112,1.24153 -1.5,0 z m 22.59457,0.15302 c -0.2879,-0.46583 0.92304,-2.15333 2.69099,-3.75 L 541.5,132.5 l -2.764,3.06933 c -1.5202,1.68814 -2.4577,3.37564 -2.08333,3.75 0.37436,0.37437 0.40722,0.68067 0.073,0.68067 -0.3342,0 -0.8432,-0.38114 -1.13111,-0.84698 z M 543,134.5 c 1.29175,-1.375 2.57363,-2.5 2.84863,-2.5 0.275,0 -0.55688,1.125 -1.84863,2.5 -1.29175,1.375 -2.57363,2.5 -2.84863,2.5 -0.275,0 0.55688,-1.125 1.84863,-2.5 z m -78.75,-6.18933 c 0.9625,-0.25152 2.5375,-0.25152 3.5,0 0.9625,0.25153 0.175,0.45733 -1.75,0.45733 -1.925,0 -2.7125,-0.2058 -1.75,-0.45733 z m 28.01375,-0.0283 c 1.52006,-0.22985 3.77006,-0.22371 5,0.0137 1.22994,0.23737 -0.0138,0.42543 -2.76375,0.41792 -2.75,-0.007 -3.75631,-0.20171 -2.23625,-0.43157 z m -35.45125,-0.96552 c 0.72187,-0.28888 1.58438,-0.25335 1.91667,0.079 0.33229,0.33229 -0.25834,0.56864 -1.3125,0.52522 -1.16495,-0.048 -1.4019,-0.28494 -0.60417,-0.60417 z m 47,0 c 0.72187,-0.28888 1.58437,-0.25335 1.91667,0.079 0.33229,0.33229 -0.25834,0.56864 -1.3125,0.52522 -1.16495,-0.048 -1.4019,-0.28494 -0.60417,-0.60417 z M 468.75,126.29427 c 1.2375,-0.23836 3.2625,-0.23836 4.5,0 1.2375,0.23835 0.225,0.43337 -2.25,0.43337 -2.475,0 -3.4875,-0.19502 -2.25,-0.43337 z m 18,-0.0177 c 1.7875,-0.22183 4.7125,-0.22183 6.5,0 1.7875,0.22182 0.325,0.40332 -3.25,0.40332 -3.575,0 -5.0375,-0.1815 -3.25,-0.40332 z m 18,-0.93889 c 0.6875,-0.27741 1.8125,-0.27741 2.5,0 0.6875,0.27741 0.125,0.50439 -1.25,0.50439 -1.375,0 -1.9375,-0.22698 -1.25,-0.50439 z M 514,125 c -1.2819,-0.82843 -1.24555,-0.9716 0.25,-0.98469 0.9625,-0.008 1.75,0.43469 1.75,0.98469 0,1.21961 -0.11279,1.21961 -2,0 z m -62.77381,-1.57872 c 0.9494,-0.99123 1.94144,-1.58698 2.20452,-1.3239 0.26308,0.26308 -0.5137,1.07408 -1.72619,1.80223 -2.10631,1.26492 -2.12762,1.24361 -0.47833,-0.47833 z M 518,124.60699 c 0,-0.21616 0.69837,-0.661 1.55194,-0.98855 0.88992,-0.34149 1.29132,-0.17385 0.94098,0.39301 C 519.90566,124.96166 518,125.4169 518,124.60699 Z m -55,-5.70061 C 463,118.40787 463.9,118 465,118 c 1.1,0 2,0.17252 2,0.38337 0,0.21085 -0.9,0.61872 -2,0.90638 -1.1,0.28766 -2,0.11514 -2,-0.38337 z M 503.19495,112.5 c 0.0204,-1.65 0.2445,-2.20394 0.49804,-1.23097 0.25354,0.97297 0.23687,2.32297 -0.037,3 -0.27398,0.67703 -0.48142,-0.11903 -0.46104,-1.76903 z m -13.91681,-0.75 c -1.49918,-1.93844 -2.44224,-3.75 -1.95217,-3.75 0.24421,0 1.18114,1.125 2.08207,2.5 1.68584,2.57291 1.59195,3.47635 -0.1299,1.25 z m 19.91681,-5.25 c 0.0204,-1.65 0.2445,-2.20394 0.49804,-1.23097 0.25354,0.97297 0.23687,2.32297 -0.0371,3 -0.27388,0.67703 -0.48132,-0.11903 -0.46094,-1.76903 z m -28.32251,-3.25 c -1.24387,-1.58606 -1.2085,-1.62143 0.37756,-0.37755 0.9625,0.75484 1.75,1.54234 1.75,1.75 0,0.82303 -0.82119,0.2933 -2.12756,-1.37245 z M 477,79.687091 c 0,-0.1721 1.4625,-1.6346 3.25,-3.25 L 483.5,73.5 480.56291,76.75 C 477.82513,79.779455 477,80.459652 477,79.687091 Z M 488,76.5 c 1.86578,-1.925 3.61733,-3.5 3.89233,-3.5 0.275,0 -1.02655,1.575 -2.89233,3.5 -1.86578,1.925 -3.61733,3.5 -3.89233,3.5 -0.275,0 1.02655,-1.575 2.89233,-3.5 z m 17,2.122445 c 0,-0.207656 0.7875,-0.995156 1.75,-1.75 1.58606,-1.243871 1.62143,-1.208501 0.37756,0.377555 C 505.82119,78.915748 505,79.445479 505,78.622445 Z m -4,-1 c 0,-0.207656 0.7875,-0.995156 1.75,-1.75 1.58606,-1.243871 1.62143,-1.208501 0.37756,0.377555 C 501.82119,77.915748 501,78.445479 501,77.622445 Z M 499,66.5 c 2.98742,-3.025 5.65668,-5.5 5.93168,-5.5 0.275,0 -1.94426,2.475 -4.93168,5.5 -2.98742,3.025 -5.65668,5.5 -5.93168,5.5 -0.275,0 1.94426,-2.475 4.93168,-5.5 z m 19,2.070368 c 0,-0.275 0.9,-0.981666 2,-1.570368 1.1,-0.588702 2,-0.845368 2,-0.570368 0,0.275 -0.9,0.981666 -2,1.570368 -1.1,0.588702 -2,0.845368 -2,0.570368 z M 500,59.5 c 1.86578,-1.925 3.61733,-3.5 3.89233,-3.5 0.275,0 -1.02655,1.575 -2.89233,3.5 -1.86578,1.925 -3.61733,3.5 -3.89233,3.5 -0.275,0 1.02655,-1.575 2.89233,-3.5 z M 511.15789,44 c 0,-1.375 0.22698,-1.9375 0.50439,-1.25 0.27741,0.6875 0.27741,1.8125 0,2.5 -0.27741,0.6875 -0.50439,0.125 -0.50439,-1.25 z"
         id="path11639"
         inkscape:connector-curvature="0" />
    </g>
  </g>
</svg>
