<?xml version="1.0" encoding="UTF-8" standalone="no"?>
<!-- Created with Inkscape (http://www.inkscape.org/) -->

<svg
   xmlns:dc="http://purl.org/dc/elements/1.1/"
   xmlns:cc="http://creativecommons.org/ns#"
   xmlns:rdf="http://www.w3.org/1999/02/22-rdf-syntax-ns#"
   xmlns:svg="http://www.w3.org/2000/svg"
   xmlns="http://www.w3.org/2000/svg"
   xmlns:sodipodi="http://sodipodi.sourceforge.net/DTD/sodipodi-0.dtd"
   xmlns:inkscape="http://www.inkscape.org/namespaces/inkscape"
   width="256px"
   height="256px"
   viewBox="0 0 256 256"
   version="1.1"
   id="SVGRoot"
   inkscape:version="0.92.3 (2405546, 2018-03-11)"
   sodipodi:docname="logotipo_umbrella.svg">
  <sodipodi:namedview
     id="base"
     pagecolor="#ffffff"
     bordercolor="#666666"
     borderopacity="1.0"
     inkscape:pageopacity="0.0"
     inkscape:pageshadow="2"
     inkscape:zoom="0.70710678"
     inkscape:cx="122.73443"
     inkscape:cy="221.81804"
     inkscape:document-units="px"
     inkscape:current-layer="layer1"
     showgrid="false"
     inkscape:window-width="1024"
     inkscape:window-height="705"
     inkscape:window-x="-4"
     inkscape:window-y="-4"
     inkscape:window-maximized="1"
     inkscape:grid-bbox="true">
    <sodipodi:guide
       position="0,0"
       orientation="0,256"
       id="guide26"
       inkscape:locked="false" />
    <sodipodi:guide
       position="256,0"
       orientation="-256,0"
       id="guide28"
       inkscape:locked="false" />
    <sodipodi:guide
       position="256,256"
       orientation="0,-256"
       id="guide30"
       inkscape:locked="false" />
    <sodipodi:guide
       position="0,256"
       orientation="256,0"
       id="guide32"
       inkscape:locked="false" />
  </sodipodi:namedview>
  <defs
     id="defs10" />
  <metadata
     id="metadata13">
    <rdf:RDF>
      <cc:Work
         rdf:about="">
        <dc:format>image/svg+xml</dc:format>
        <dc:type
           rdf:resource="http://purl.org/dc/dcmitype/StillImage" />
        <dc:title></dc:title>
      </cc:Work>
    </rdf:RDF>
  </metadata>
  <g
     id="layer1"
     inkscape:groupmode="layer"
     inkscape:label="Camada 1">
    <g
       id="g4641">
      <path
         inkscape:connector-curvature="0"
         id="path45-8"
         d="m 81.60667,254 c 1.38092,-3.53274 49.46464,-119.03113 49.55444,-119.03106 0.1366,9e-5 49.73152,119.32509 49.63812,119.42894 -0.0316,0.0351 -1.45368,-0.59855 -3.16025,-1.40807 -10.95014,-5.19431 -24.95494,-9.3796 -36.60287,-10.93866 -4.07082,-0.54487 -14.72136,-0.62572 -18.625,-0.14138 -12.20897,1.51481 -26.27873,5.63725 -37.60013,11.01683 -1.77382,0.84285 -3.26081,1.53248 -3.30444,1.53248 -0.0436,0 0.001,-0.20657 0.10013,-0.45908 z M 5.4111202,178.36365 c 0,-0.0436 0.68962,-1.53062 1.53248,-3.30444 C 11.17867,166.14646 15.521,152.67065 17.04561,143.70908 19.0671,131.82685 18.79994,121.54629 16.15598,109.4754 14.1784,100.44682 9.9447802,88.224213 6.2620502,80.911282 c -0.48566,-0.964394 -0.84768,-1.785884 -0.80448,-1.825532 0.11264,-0.103378 119.4439398,49.47311 119.4440498,49.62333 5e-5,0.0687 -26.67875,11.20625 -59.28623,24.75 C 0.4516402,180.52531 5.4111202,178.47373 5.4111202,178.36365 Z M 197.1034,153.61929 c -32.82549,-13.63187 -59.68271,-24.84146 -59.68271,-24.91021 0,-0.13656 119.32532,-49.731455 119.42922,-49.638075 0.0351,0.03154 -0.59617,1.45363 -1.4028,3.160207 -5.27784,11.166233 -9.37217,24.860048 -10.94393,36.602868 -0.54487,4.07082 -0.62572,14.72136 -0.14138,18.625 1.53378,12.36182 5.53582,26.04604 10.96068,37.47793 0.8751,1.84412 1.5624,3.37872 1.52735,3.41021 -0.035,0.0315 -26.92094,-11.09607 -59.74643,-24.72793 z M 106.25086,62.766605 C 92.61898,29.941217 81.49144,3.0553705 81.523,3.0202805 c 0.0316,-0.03509 1.50992,0.626403 3.28525,1.469983 11.32426,5.3809375 25.39266,9.5031595 37.60286,11.0181235 4.33158,0.537435 14.31839,0.410018 19.16742,-0.244548 11.45298,-1.546024 25.15984,-5.664676 36.06045,-10.8354825 1.70657,-0.809531 3.12869,-1.443165 3.16025,-1.408076 0.0934,0.103863 -49.50153,119.4288495 -49.63812,119.4288495 -0.0687,0 -11.27837,-26.857135 -24.91025,-59.682525 z"
         style="fill:#bb2649;stroke-width:0.25;stroke:#0d0d0d;stroke-opacity:1;fill-opacity:1" />
      <path
         inkscape:connector-curvature="0"
         id="path45-8-5"
         d="m 5.4111202,182.36365 c 3.48317,-1.50157 119.4252698,-48.50526 119.4883498,-48.44136 0.096,0.0972 -49.89641,119.25624 -50.03592,119.26282 -0.0472,0.002 -0.59632,-1.45459 -1.22039,-3.23735 -4.0043,-11.43906 -10.87369,-24.3411 -17.95381,-33.72071 -2.47442,-3.27807 -9.90458,-10.90913 -12.9934,-13.34473 -9.66056,-7.61758 -22.48372,-14.72522 -34.2687498,-18.99453 -1.84645,-0.66891 -3.38229,-1.24157 -3.41295,-1.2726 -0.0303,-0.0313 0.14757,-0.14454 0.39687,-0.25154 z m 0.22171,-107.361873 c 0.0313,-0.03032 1.57335,-0.585645 3.42737,-1.233287 C 18.37597,70.51437 31.01221,64.128562 38.45716,58.91254 48.3285,51.996572 55.45179,44.579036 62.17734,34.212555 67.2078,26.458812 72.92367,14.855164 75.53526,7.094942 c 0.3444,-1.023377 0.6741,-1.858369 0.73267,-1.855521 0.15271,0.0074 48.78944,119.724809 48.68269,119.830509 -0.0489,0.0483 -26.7254,-11.09452 -59.28122,-24.76197 C 0.6088802,72.994502 5.5545502,75.079163 5.6328302,75.001777 Z M 157.99555,193.92957 c -13.38289,-32.92779 -24.29254,-59.90825 -24.24365,-59.95659 0.0971,-0.096 119.25637,49.89664 119.263,50.03617 0.002,0.0471 -1.45289,0.59798 -3.23362,1.22412 -11.65146,4.09681 -24.26839,10.81226 -33.72441,17.95004 -3.27807,2.47443 -10.90914,9.90459 -13.34474,12.99341 -7.71294,9.78149 -14.63104,22.248 -18.94709,34.14292 -0.69625,1.9188 -1.3044,3.48644 -1.35143,3.48366 -0.047,-0.003 -11.03516,-26.94596 -24.41806,-59.87373 z M 158.7342,65.446681 c 13.76047,-32.771673 25.0576,-59.586702 25.10475,-59.58893 0.0472,-0.0022 0.61605,1.514177 1.26424,3.369783 4.13459,11.83632 11.09354,24.739233 18.60029,34.487707 2.66304,3.458273 9.77468,10.470911 13.6492,13.459165 9.15127,7.057997 21.71663,13.910236 33.05736,18.027076 1.77547,0.644515 3.22589,1.210405 3.22313,1.257518 -0.008,0.139448 -119.73409,48.75863 -119.83011,48.66149 -0.0483,-0.0489 11.17068,-26.90212 24.93114,-59.673809 z"
         style="fill:#ffffff;stroke-width:0.25;stroke:#0d0d0d;stroke-opacity:1;fill-opacity:0.88018435" />
      <path
         sodipodi:nodetypes="ccsscc"
         inkscape:connector-curvature="0"
         id="path4630"
         d="M 5.4111202,178.36365 124.5,128.75 c -24.795089,7.81777 -50.416545,17.59137 -98.340998,34.50132 -3.382457,1.19349 -10.018616,12.62755 -10.683164,4.77187 C 14.871303,160.87694 20.200159,134.62026 18.25,131 17.725442,145.84912 13.929587,161.51606 5.4111202,178.36365 Z"
         style="fill:#c3284c;fill-opacity:1;stroke:none;stroke-width:0.1;stroke-linecap:butt;stroke-linejoin:miter;stroke-miterlimit:4;stroke-dasharray:none;stroke-opacity:1" />
      <path
         sodipodi:nodetypes="ccccc"
         inkscape:connector-curvature="0"
         id="path4632"
         d="M 161.875,13.625 177.625,5.4999996 131,119.625 134.29074,107.17157 C 146.15254,74.884307 169.83807,39.303978 161.875,13.625 Z"
         style="fill:#c8294e;fill-opacity:1;stroke:none;stroke-width:1px;stroke-linecap:butt;stroke-linejoin:miter;stroke-opacity:1" />
      <path
         sodipodi:nodetypes="cccc"
         inkscape:connector-curvature="0"
         id="path4634"
         d="m 131,139.5 46.5,111.25 -22.25,-9.5 C 161.77588,208.37685 141.29269,173.57448 131,139.5 Z"
         style="fill:#c8294e;fill-opacity:1;stroke:none;stroke-width:1px;stroke-linecap:butt;stroke-linejoin:miter;stroke-opacity:1" />
    </g>
  </g>
</svg>
