<?xml version="1.0" encoding="UTF-8" standalone="no"?>
<!-- Created with Inkscape (http://www.inkscape.org/) -->

<svg
   xmlns:dc="http://purl.org/dc/elements/1.1/"
   xmlns:cc="http://creativecommons.org/ns#"
   xmlns:rdf="http://www.w3.org/1999/02/22-rdf-syntax-ns#"
   xmlns:svg="http://www.w3.org/2000/svg"
   xmlns="http://www.w3.org/2000/svg"
   xmlns:sodipodi="http://sodipodi.sourceforge.net/DTD/sodipodi-0.dtd"
   xmlns:inkscape="http://www.inkscape.org/namespaces/inkscape"
   width="256px"
   height="256px"
   viewBox="0 0 256 256"
   version="1.1"
   id="SVGRoot"
   inkscape:version="0.92.3 (2405546, 2018-03-11)"
   sodipodi:docname="mysql.svg">
  <sodipodi:namedview
     id="base"
     pagecolor="#ffffff"
     bordercolor="#666666"
     borderopacity="1.0"
     inkscape:pageopacity="0.0"
     inkscape:pageshadow="2"
     inkscape:zoom="1"
     inkscape:cx="158.28326"
     inkscape:cy="106.22096"
     inkscape:document-units="px"
     inkscape:current-layer="layer1"
     showgrid="false"
     inkscape:window-width="1024"
     inkscape:window-height="705"
     inkscape:window-x="-4"
     inkscape:window-y="-4"
     inkscape:window-maximized="1"
     inkscape:grid-bbox="true">
    <sodipodi:guide
       position="0,0"
       orientation="0,256"
       id="guide2135"
       inkscape:locked="false" />
    <sodipodi:guide
       position="256,0"
       orientation="-256,0"
       id="guide2137"
       inkscape:locked="false" />
    <sodipodi:guide
       position="256,256"
       orientation="0,-256"
       id="guide2139"
       inkscape:locked="false" />
    <sodipodi:guide
       position="0,256"
       orientation="256,0"
       id="guide2141"
       inkscape:locked="false" />
  </sodipodi:namedview>
  <defs
     id="defs881" />
  <metadata
     id="metadata884">
    <rdf:RDF>
      <cc:Work
         rdf:about="">
        <dc:format>image/svg+xml</dc:format>
        <dc:type
           rdf:resource="http://purl.org/dc/dcmitype/StillImage" />
        <dc:title></dc:title>
      </cc:Work>
    </rdf:RDF>
  </metadata>
  <g
     id="layer1"
     inkscape:groupmode="layer"
     inkscape:label="Camada 1">
    <rect
       style="fill:#ffffff;fill-opacity:1;stroke:none;stroke-width:2.66499996;stroke-linecap:butt;stroke-linejoin:miter;stroke-miterlimit:0;stroke-dasharray:none;stroke-opacity:1;paint-order:markers stroke fill"
       id="rect2143"
       width="256"
       height="256"
       x="0"
       y="0"
       ry="31" />
    <path
       inkscape:connector-curvature="0"
       style="fill:#00618a;stroke-width:0.53264618"
       d="m 26.312431,162.58833 h 6.84024 v -27.01102 l 10.58901,23.54722 c 1.24959,2.84966 2.95991,3.85849 6.31399,3.85849 3.3546,0 4.99888,-1.0083 6.249,-3.85849 l 10.58901,-23.54722 v 27.01049 h 6.84024 v -26.96628 c 0,-2.63127 -1.05251,-3.9027 -3.22251,-4.55998 -5.19596,-1.62244 -8.68213,-0.21945 -10.2609,3.28855 l -10.39192,23.23936 -10.06276,-23.23936 c -1.51271,-3.508 -5.0644,-4.91099 -10.26036,-3.28855 -2.17053,0.65728 -3.22304,1.92924 -3.22304,4.55945 z m 53.10908,-21.9855 h 6.83812 v 14.88107 c -0.0639,0.80855 0.25939,2.70584 4.00656,2.76443 1.91167,0.0304 14.754299,0 14.874139,0 v -17.71794 h 6.85409 c 0.0314,0 -0.007,24.16296 -0.006,24.26576 0.0373,5.95924 -7.3942,7.25358 -10.81965,7.35371 H 79.569971 v -4.60206 c 0.0383,0 21.582819,0.005 21.637149,-4.5e-4 4.40232,-0.465 3.88246,-2.65311 3.88193,-3.38976 v -1.79395 H 90.549941 c -6.76461,-0.0623 -11.07158,-3.01478 -11.12485,-6.4104 -0.005,-0.31479 0.14595,-15.20172 -0.004,-15.35086 z"
       id="path5809" />
    <path
       inkscape:connector-curvature="0"
       style="fill:#e48e00;stroke-width:0.53264618"
       d="m 117.26602,162.58833 h 19.6653 c 2.3021,0 4.53814,-0.48204 6.31452,-1.31563 2.95938,-1.35879 4.40658,-3.20014 4.40658,-5.6125 v -4.99835 c 0,-1.97345 -1.64428,-3.81534 -4.86732,-5.04256 -1.71033,-0.65835 -3.81481,-1.00883 -5.85378,-1.00883 h -8.28797 c -2.76124,0 -4.07688,-0.83306 -4.40552,-2.67442 -0.0661,-0.21945 -0.0661,-0.39522 -0.0661,-0.61414 v -3.11278 c 0,-0.17578 0,-0.35155 0.0661,-0.57047 0.32864,-1.40299 1.05251,-1.79821 3.48564,-2.01713 0.19707,0 0.4602,-0.0442 0.65781,-0.0442 h 19.53427 v -4.55945 h -19.20562 c -2.76231,0 -4.20951,0.17524 -5.52461,0.5694 -4.07794,1.27196 -5.85378,3.28909 -5.85378,6.79656 v 3.99059 c 0,3.06964 3.48617,5.70038 9.33942,6.31399 0.65835,0.0437 1.31563,0.0873 1.97292,0.0873 h 7.10337 c 0.26366,0 0.52678,0 0.72386,0.0442 2.17054,0.17577 3.09095,0.56993 3.7493,1.35931 0.39416,0.39416 0.52572,0.78938 0.52572,1.22775 v 3.98952 c 0,0.48311 -0.32864,1.09725 -0.98593,1.62297 -0.5923,0.52626 -1.57876,0.87727 -2.8944,0.96516 -0.26312,0 -0.4602,0.0437 -0.72333,0.0437 h -18.87698 v 4.55945 z m 73.05775,-7.93643 c 0,4.69155 3.48564,7.32282 10.52349,7.84908 0.65729,0.0437 1.31564,0.0874 1.97292,0.0874 h 17.82448 v -4.55999 h -17.95604 c -4.01189,0 -5.52461,-1.00883 -5.52461,-3.42012 v -23.5909 h -6.84024 z m -38.30578,0.23916 V 138.6331 c 0,-4.13014 2.90026,-6.63517 8.63366,-7.42615 a 13.119075,13.119075 0 0 1 1.84562,-0.13156 h 12.98378 c 0.65889,0 1.25279,0.0442 1.91167,0.13156 5.73394,0.79098 8.63367,3.29601 8.63367,7.42615 v 16.25743 c 0,3.35034 -1.23148,5.1443 -4.06996,6.31292 l 6.73798,6.08175 h -7.94229 l -5.4511,-4.92058 -5.48785,0.34782 h -7.3159 c -1.25225,0 -2.57002,-0.17631 -4.02041,-0.57153 -4.34959,-1.1862 -6.45887,-3.47126 -6.45887,-7.25038 z m 7.38248,-0.39522 c 0,0.21998 0.066,0.43943 0.13209,0.70309 0.39523,1.8893 2.1748,2.94394 4.87691,2.94394 h 6.21438 l -5.70837,-5.15335 h 7.94176 l 4.97917,4.49446 c 0.91722,-0.48897 1.52124,-1.2368 1.73217,-2.19716 0.0655,-0.21945 0.0655,-0.43943 0.0655,-0.65889 v -15.59854 c 0,-0.17577 0,-0.39575 -0.0655,-0.61574 -0.39576,-1.75773 -2.17533,-2.76763 -4.81139,-2.76763 h -10.34772 c -3.03129,0 -5.00847,1.3183 -5.00847,3.38337 v 15.46645 z"
       id="path5811" />
    <path
       inkscape:connector-curvature="0"
       style="fill:#00618a;stroke-width:0.53264618"
       d="m 226.66196,123.45269 c -4.20417,-0.11399 -7.41603,0.27697 -10.16182,1.43494 -0.78033,0.32918 -2.02459,0.3377 -2.15189,1.31564 0.42878,0.44955 0.49536,1.12069 0.83625,1.67358 0.65516,1.06103 1.76253,2.48266 2.75005,3.22836 1.07914,0.81495 2.19131,1.68583 3.34821,2.39159 2.05762,1.25438 4.35492,1.97079 6.33637,3.22783 1.16756,0.74091 2.32766,1.67411 3.46699,2.51036 0.56301,0.41334 0.94172,1.05624 1.67357,1.31564 v -0.11985 c -0.38457,-0.4895 -0.48364,-1.16276 -0.83678,-1.6741 l -1.55427,-1.55427 c -1.51964,-2.01713 -3.44888,-3.78871 -5.49957,-5.26041 -1.63522,-1.17395 -5.29557,-2.75911 -5.97789,-4.66278 l -0.11984,-0.11985 c 1.15957,-0.1305 2.51728,-0.55022 3.58737,-0.83625 1.79768,-0.48258 3.40361,-0.35794 5.26042,-0.83732 0.83625,-0.23916 1.67357,-0.47885 2.51089,-0.71748 v -0.47831 c -0.93852,-0.96303 -1.60753,-2.23712 -2.63127,-3.10853 -2.67655,-2.27972 -5.59865,-4.55732 -8.60757,-6.4562 -1.66878,-1.05357 -3.73118,-1.73803 -5.49957,-2.63074 -0.59496,-0.29988 -1.64055,-0.45595 -2.03311,-0.95663 -0.92893,-1.18408 -1.43495,-2.6856 -2.15189,-4.06516 -1.50046,-2.8896 -2.9743,-6.04606 -4.30378,-9.08694 -0.9071,-2.073058 -1.4994,-4.117354 -2.63021,-5.977888 -5.42873,-8.925552 -11.27239,-14.312202 -20.32471,-19.607771 -1.92605,-1.126014 -4.24519,-1.571306 -6.69589,-2.15189 l -3.94531,-0.239691 c -0.8027,-0.335567 -1.63789,-1.317234 -2.39158,-1.79342 -2.9988,-1.894089 -10.69021,-6.015173 -12.91135,-0.597629 -1.40246,3.419589 2.09596,6.756617 3.34715,8.489315 0.87833,1.215499 2.00275,2.578008 2.63021,3.94531 0.4128,0.898574 0.48417,1.799279 0.83732,2.750052 0.86928,2.342046 1.62457,4.889692 2.74951,7.053834 0.56834,1.09512 1.19473,2.248832 1.91327,3.227835 0.4405,0.601359 1.19526,0.866084 1.31457,1.793953 -0.73825,1.033333 -0.78033,2.636599 -1.19526,3.94531 -1.86852,5.89213 -1.16383,13.21495 1.55426,17.57572 0.83413,1.33854 2.79853,4.20951 5.49958,3.10853 2.36282,-0.9625 1.83496,-3.94478 2.51089,-6.57552 0.15287,-0.59656 0.0586,-1.03547 0.35847,-1.43495 v 0.11985 l 2.15189,4.30378 c 1.59261,2.56469 4.4199,5.2455 6.81521,7.05436 1.24213,0.93799 2.22007,2.5599 3.826,3.10853 v -0.11985 H 190.197 c -0.31106,-0.48471 -0.7979,-0.68605 -1.19526,-1.07595 -0.93586,-0.91721 -1.97611,-2.05761 -2.75005,-3.10852 -2.17852,-2.95778 -4.10404,-6.19467 -5.85804,-9.56472 -0.83785,-1.6086 -1.56598,-3.38444 -2.27227,-5.02179 -0.27218,-0.63119 -0.26899,-1.58569 -0.83626,-1.91326 -0.7734,1.20004 -1.91273,2.17052 -2.51089,3.58736 -0.95663,2.26481 -1.0802,5.02659 -1.43442,7.89062 -0.20986,0.0751 -0.11718,0.0234 -0.23968,0.11932 -1.66506,-0.40162 -2.25043,-2.11567 -2.86884,-3.58631 -1.56598,-3.71893 -1.85627,-9.70747 -0.47938,-13.988351 0.35687,-1.107905 1.9676,-4.596736 1.31564,-5.619417 -0.31107,-1.021083 -1.33801,-1.611788 -1.91274,-2.391581 -0.71108,-0.964622 -1.4211,-2.234452 -1.91326,-3.348214 -1.28101,-2.899726 -1.87918,-6.154727 -3.22784,-9.085879 -0.6445,-1.401392 -1.73483,-2.819296 -2.6302,-4.065155 -0.99126,-1.379554 -2.10129,-2.396908 -2.86937,-4.065688 -0.27325,-0.592836 -0.6445,-1.542011 -0.23969,-2.151891 0.12943,-0.411203 0.31107,-0.583248 0.71801,-0.717474 0.6935,-0.534244 2.62488,0.177903 3.34715,0.478316 1.91752,0.796306 3.51759,1.554794 5.14163,2.630207 0.77979,0.517199 1.56811,1.516976 2.51036,1.793952 h 1.07595 c 1.68316,0.386701 3.56873,0.119845 5.1411,0.597629 2.77935,0.844777 5.27,2.158282 7.53162,3.586839 6.8919,4.351187 12.52623,10.545329 16.38046,17.934197 0.62,1.189398 0.88846,2.325001 1.43442,3.586839 1.10204,2.544981 2.49012,5.163471 3.5863,7.651991 1.09406,2.48213 2.16042,4.98823 3.70669,7.05437 0.81335,1.08606 3.9533,1.66878 5.37973,2.2712 1.00084,0.42292 2.63979,0.86342 3.58737,1.43442 1.80993,1.09192 3.5634,2.39158 5.26094,3.58737 0.84851,0.59763 3.45635,1.90847 3.58631,2.98868 z"
       id="path5813" />
    <path
       inkscape:connector-curvature="0"
       style="fill:#e48e00;fill-rule:evenodd;stroke-width:0.53264618"
       d="m 223.85491,157.89838 c 0,3.01158 2.37987,5.04096 5.0415,5.04096 2.66163,0 5.04096,-2.02938 5.04096,-5.04096 0,-3.01105 -2.37933,-5.04043 -5.04096,-5.04043 -2.66163,0 -5.04096,2.02938 -5.04096,5.04043 z m 8.95325,0 c 0,2.28505 -1.74708,3.99272 -3.91175,3.99272 -2.19077,0 -3.91175,-1.70767 -3.91175,-3.99272 0,-2.28505 1.72044,-3.99271 3.91175,-3.99271 2.16467,0 3.91175,1.70766 3.91175,3.99271 z m -2.5535,2.87629 h 1.12868 l -1.65281,-2.52634 c 0.88686,-0.0943 1.55853,-0.52466 1.55853,-1.5729 0,-1.16969 -0.73878,-1.65334 -2.16361,-1.65334 h -2.2451 v 5.75258 h 0.96781 v -2.48639 h 0.90018 l 1.50632,2.48692 z m -2.4065,-3.29282 v -1.65333 h 1.11536 c 0.57846,0 1.27729,0.10759 1.27729,0.77979 0,0.8059 -0.63172,0.87354 -1.35825,0.87354 z"
       id="path5817" />
  </g>
</svg>
