<?xml version="1.0" encoding="UTF-8" standalone="no"?>
<!-- Created with Inkscape (http://www.inkscape.org/) -->

<svg
   xmlns:dc="http://purl.org/dc/elements/1.1/"
   xmlns:cc="http://creativecommons.org/ns#"
   xmlns:rdf="http://www.w3.org/1999/02/22-rdf-syntax-ns#"
   xmlns:svg="http://www.w3.org/2000/svg"
   xmlns="http://www.w3.org/2000/svg"
   xmlns:xlink="http://www.w3.org/1999/xlink"
   xmlns:sodipodi="http://sodipodi.sourceforge.net/DTD/sodipodi-0.dtd"
   xmlns:inkscape="http://www.inkscape.org/namespaces/inkscape"
   width="256px"
   height="256px"
   viewBox="0 0 256 256"
   version="1.1"
   id="SVGRoot"
   inkscape:version="0.92.3 (2405546, 2018-03-11)"
   sodipodi:docname="python.svg">
  <sodipodi:namedview
     id="base"
     pagecolor="#ffffff"
     bordercolor="#666666"
     borderopacity="1.0"
     inkscape:pageopacity="0.0"
     inkscape:pageshadow="2"
     inkscape:zoom="1"
     inkscape:cx="222.16107"
     inkscape:cy="89.161472"
     inkscape:document-units="px"
     inkscape:current-layer="layer1"
     showgrid="false"
     inkscape:window-width="1024"
     inkscape:window-height="705"
     inkscape:window-x="-4"
     inkscape:window-y="-4"
     inkscape:window-maximized="1"
     inkscape:grid-bbox="true">
    <sodipodi:guide
       position="0,0"
       orientation="0,256"
       id="guide2135"
       inkscape:locked="false" />
    <sodipodi:guide
       position="256,0"
       orientation="-256,0"
       id="guide2137"
       inkscape:locked="false" />
    <sodipodi:guide
       position="256,256"
       orientation="0,-256"
       id="guide2139"
       inkscape:locked="false" />
    <sodipodi:guide
       position="0,256"
       orientation="256,0"
       id="guide2141"
       inkscape:locked="false" />
  </sodipodi:namedview>
  <defs
     id="defs881">
    <linearGradient
       inkscape:collect="always"
       xlink:href="#linearGradient4689"
       id="linearGradient1478"
       gradientUnits="userSpaceOnUse"
       gradientTransform="matrix(0.562541,0,0,0.567972,-14.99112,-11.702371)"
       x1="26.648937"
       y1="20.603781"
       x2="135.66525"
       y2="114.39767" />
    <linearGradient
       id="linearGradient4689">
      <stop
         style="stop-color:#5a9fd4;stop-opacity:1;"
         offset="0"
         id="stop4691" />
      <stop
         style="stop-color:#306998;stop-opacity:1;"
         offset="1"
         id="stop4693" />
    </linearGradient>
    <linearGradient
       inkscape:collect="always"
       xlink:href="#linearGradient4671"
       id="linearGradient1475"
       gradientUnits="userSpaceOnUse"
       gradientTransform="matrix(0.562541,0,0,0.567972,-14.99112,-11.702371)"
       x1="150.96111"
       y1="192.35176"
       x2="112.03144"
       y2="137.27299" />
    <linearGradient
       id="linearGradient4671">
      <stop
         style="stop-color:#ffd43b;stop-opacity:1;"
         offset="0"
         id="stop4673" />
      <stop
         style="stop-color:#ffe873;stop-opacity:1"
         offset="1"
         id="stop4675" />
    </linearGradient>
  </defs>
  <metadata
     id="metadata884">
    <rdf:RDF>
      <cc:Work
         rdf:about="">
        <dc:format>image/svg+xml</dc:format>
        <dc:type
           rdf:resource="http://purl.org/dc/dcmitype/StillImage" />
        <dc:title></dc:title>
      </cc:Work>
    </rdf:RDF>
  </metadata>
  <g
     id="layer1"
     inkscape:groupmode="layer"
     inkscape:label="Camada 1">
    <rect
       style="fill:#ffffff;fill-opacity:1;stroke:none;stroke-width:2.66499996;stroke-linecap:butt;stroke-linejoin:miter;stroke-miterlimit:0;stroke-dasharray:none;stroke-opacity:1;paint-order:markers stroke fill"
       id="rect2143"
       width="256"
       height="256"
       x="0"
       y="0"
       ry="31" />
    <g
       id="g10820"
       transform="matrix(2.1389015,0,0,2.1389015,9.41932,7.9980338)">
      <path
         inkscape:connector-curvature="0"
         id="path1948"
         d="M 54.918785,9.1927389e-4 C 50.335132,0.02221727 45.957846,0.41313697 42.106285,1.0946693 30.760069,3.0991731 28.700036,7.2947714 28.700035,15.032169 v 10.21875 h 26.8125 v 3.40625 h -26.8125 -10.0625 c -7.792459,0 -14.6157588,4.683717 -16.7499998,13.59375 -2.46181998,10.212966 -2.57101508,16.586023 0,27.25 1.9059283,7.937852 6.4575432,13.593748 14.2499998,13.59375 h 9.21875 v -12.25 c 0,-8.849902 7.657144,-16.656248 16.75,-16.65625 h 26.78125 c 7.454951,0 13.406253,-6.138164 13.40625,-13.625 v -25.53125 c 0,-7.2663386 -6.12998,-12.7247771 -13.40625,-13.9374997 C 64.281548,0.32794397 59.502438,-0.02037903 54.918785,9.1927389e-4 Z m -14.5,8.21875012611 c 2.769547,0 5.03125,2.2986456 5.03125,5.1249996 -2e-6,2.816336 -2.261703,5.09375 -5.03125,5.09375 -2.779476,-1e-6 -5.03125,-2.277415 -5.03125,-5.09375 -10e-7,-2.826353 2.251774,-5.1249996 5.03125,-5.1249996 z"
         style="fill:url(#linearGradient1478);fill-opacity:1" />
      <path
         inkscape:connector-curvature="0"
         id="path1950"
         d="m 85.637535,28.657169 v 11.90625 c 0,9.230755 -7.825895,16.999999 -16.75,17 h -26.78125 c -7.335833,0 -13.406249,6.278483 -13.40625,13.625 v 25.531247 c 0,7.266344 6.318588,11.540324 13.40625,13.625004 8.487331,2.49561 16.626237,2.94663 26.78125,0 6.750155,-1.95439 13.406253,-5.88761 13.40625,-13.625004 V 86.500919 h -26.78125 v -3.40625 h 26.78125 13.406254 c 7.792461,0 10.696251,-5.435408 13.406241,-13.59375 2.79933,-8.398886 2.68022,-16.475776 0,-27.25 -1.92578,-7.757441 -5.60387,-13.59375 -13.406241,-13.59375 z m -15.0625,64.65625 c 2.779478,3e-6 5.03125,2.277417 5.03125,5.093747 -2e-6,2.826354 -2.251775,5.125004 -5.03125,5.125004 -2.76955,0 -5.03125,-2.29865 -5.03125,-5.125004 2e-6,-2.81633 2.261697,-5.093747 5.03125,-5.093747 z"
         style="fill:url(#linearGradient1475);fill-opacity:1" />
    </g>
  </g>
</svg>
